<?xml version="1.0" standalone="no"?>
<!DOCTYPE svg PUBLIC "-//W3C//DTD SVG 1.1//EN" "http://www.w3.org/Graphics/SVG/1.1/DTD/svg11.dtd" >
<svg xmlns="http://www.w3.org/2000/svg">
<metadata>Generated by IcoMoon</metadata>
<defs>
<font id="icomoon" horiz-adv-x="1024">
<font-face units-per-em="1024" ascent="960" descent="-64" />
<missing-glyph horiz-adv-x="1024" />
<glyph unicode="&#x20;" horiz-adv-x="512" d="" />
<glyph unicode="&#xe900;" glyph-name="thin-0379_business_suitcase_X" d="M844.8 78.933h-665.6c-55.467 0-98.133 42.667-98.133 98.133v448c0 55.467 42.667 98.133 98.133 98.133h669.867c55.467 0 98.133-42.667 98.133-98.133v-452.267c-4.267-51.2-46.933-93.867-102.4-93.867zM179.2 680.533c-29.867 0-55.467-25.6-55.467-55.467v-452.267c0-29.867 25.6-55.467 55.467-55.467h669.867c29.867 0 55.467 25.6 55.467 55.467v452.267c0 29.867-25.6 55.467-55.467 55.467h-669.867zM921.6 467.2h-358.4c-12.8 0-4.267 8.533-4.267 21.333s-8.533 21.333 4.267 21.333h358.4c12.8 0 4.267-8.533 4.267-21.333s8.533-21.333-4.267-21.333zM456.533 467.2h-354.133c-12.8 0-4.267 8.533-4.267 21.333s-4.267 21.333 4.267 21.333h354.133c12.8 0 4.267-8.533 4.267-21.333s8.533-21.333-4.267-21.333zM546.133 398.933h-72.533c-21.333 0-38.4 17.067-38.4 38.4v72.533c0 21.333 17.067 38.4 38.4 38.4h72.533c21.333 0 38.4-17.067 38.4-38.4v-72.533c0-21.333-17.067-38.4-38.4-38.4zM477.867 441.6h64v64h-64v-64zM665.6 753.067c-12.8 0-21.333 8.533-21.333 21.333v17.067c0 29.867-25.6 51.2-55.467 51.2h-149.333c-29.867-4.267-55.467-25.6-55.467-51.2v-17.067c0-12.8-8.533-21.333-21.333-21.333s-21.333 8.533-21.333 21.333v17.067c0 51.2 42.667 93.867 98.133 93.867h149.333c55.467 0 98.133-42.667 98.133-93.867v-17.067c0-12.8-12.8-21.333-21.333-21.333z" />
<glyph unicode="&#xe901;" glyph-name="grunngogn" d="M880.213 803.968l-141.312 139.477c-6.912 6.827-16.427 16.171-34.261 16.171h-521.088c-30.293 0-54.955-25.003-54.955-55.723v-912.853c0-30.592 24.661-55.467 54.955-55.467h657.963c30.379 0 55.125 24.875 55.125 55.467v776.533c0 17.92-8.789 28.843-16.427 36.395zM834.688 788.907h-108.715v107.307l108.715-107.307zM841.515-21.76h-657.963c-6.656 0-12.288 5.888-12.288 12.8v912.853c0 7.083 5.632 13.056 12.288 13.056l499.755 0.299v-149.675c0-11.776 9.557-21.333 21.333-21.333h149.333v-755.2c0-6.912-5.717-12.8-12.459-12.8zM744.448 659.243h-464.469c-11.776 0-21.333-9.557-21.333-21.333v-511.488c0-11.776 9.557-21.333 21.333-21.333h464.469c11.776 0 21.333 9.557 21.333 21.333v511.488c0 11.819-9.515 21.333-21.333 21.333zM723.115 403.499h-126.379v85.205h126.379v-85.205zM554.069 403.499h-126.379v85.205h126.379v-85.205zM385.024 403.499h-83.712v85.205h83.712v-85.205zM301.312 360.832h83.712v-85.205h-83.712v85.205zM427.691 360.832h126.379v-85.205h-126.379v85.205zM596.736 360.832h126.379v-85.205h-126.379v85.205zM723.115 531.371h-126.379v85.205h126.379v-85.205zM554.069 531.371h-126.379v85.205h126.379v-85.205zM301.312 616.576h83.712v-85.205h-83.712v85.205zM301.312 232.96h83.712v-85.205h-83.712v85.205zM427.691 232.96h126.379v-85.205h-126.379v85.205zM723.115 147.755h-126.379v85.205h126.379v-85.205z" />
<glyph unicode="&#xe902;" glyph-name="myndrit" d="M901.291 959.872h-779.52c-67.413 0-122.24-54.827-122.24-122.24v-779.563c0-67.371 54.827-122.197 122.24-122.197h779.52c67.413 0 122.24 54.827 122.24 122.197v779.563c0 67.413-54.827 122.24-122.24 122.24zM121.771 917.205h779.52c43.861 0 79.573-35.669 79.573-79.573v-381.184l-156.501 132.651c4.224 9.472 6.656 19.925 6.656 30.933 0 42.197-34.347 76.501-76.544 76.501-42.155 0-76.501-34.347-76.501-76.501 0-20.096 7.979-38.315 20.693-51.968l-166.485-279.339c-6.144 1.579-12.501 2.731-19.115 2.731-15.744 0-30.421-4.821-42.581-13.013l-128.939 108.075c4.181 9.429 6.571 19.797 6.571 30.763 0 42.197-34.347 76.501-76.501 76.501s-76.501-34.304-76.501-76.501c0-10.923 2.389-21.291 6.528-30.72l-159.403-133.035v584.107c-0.043 43.861 35.669 79.573 79.531 79.573zM720.683 620.032c0 18.688 15.147 33.835 33.835 33.835s33.877-15.189 33.877-33.835-15.189-33.835-33.877-33.835-33.835 15.147-33.835 33.835zM513.067 248.747c18.688 0 33.835-15.147 33.835-33.835s-15.189-33.835-33.835-33.835-33.835 15.147-33.835 33.835 15.147 33.835 33.835 33.835zM237.739 417.28c0 18.645 15.189 33.835 33.835 33.835s33.835-15.189 33.835-33.835c0-18.688-15.189-33.835-33.835-33.835s-33.835 15.189-33.835 33.835zM901.291-21.461h-779.52c-43.861 0-79.573 35.669-79.573 79.531v139.904l186.752 155.819c12.203-8.235 26.88-13.056 42.667-13.056 15.744 0 30.421 4.821 42.581 13.013l128.939-108.075c-4.181-9.429-6.571-19.797-6.571-30.763 0-42.155 34.347-76.501 76.501-76.501s76.501 34.347 76.501 76.501c0 20.096-7.979 38.315-20.736 51.968l166.485 279.339c6.144-1.621 12.501-2.731 19.157-2.731 15.701 0 30.293 4.779 42.453 12.928l183.936-155.861v-342.443c0-43.904-35.712-79.573-79.573-79.573z" />
<glyph unicode="&#xe903;" glyph-name="servinnsla" d="M204.715 706.261h788.139c8.661 0 16.469 5.248 19.755 13.227 3.243 8.021 1.408 17.195-4.736 23.253l-127.701 126.379c-4.011 3.925-9.387 6.187-15.019 6.187l-531.456 0.128c-5.589 0-10.965-2.176-14.933-6.101l-128.981-126.507c-6.187-6.059-8.064-15.275-4.821-23.296s11.093-13.269 19.755-13.269zM342.4 832.768l513.963-0.128 84.565-83.669h-683.989l85.461 83.797zM987.136 205.995c-21.333 15.232-48.427 17.109-74.368 5.291l-166.443-75.904c-8.619 10.027-20.395 18.261-36.267 22.912l-235.947 69.205c-39.253 11.52-147.797 17.963-258.688 3.157v25.344c0 11.776-9.557 21.333-21.333 21.333h-170.667c-11.776 0-21.333-9.557-21.333-21.333v-298.667c0-11.776 9.557-21.333 21.333-21.333h170.667c11.776 0 21.333 9.557 21.333 21.333v45.227l0.853 0.213c28.459 7.808 71.339 19.413 92.203 10.197 113.408-50.731 222.464-67.371 302.891-67.371 53.291 0 93.995 7.296 114.944 16.896l249.685 113.835c25.003 11.392 40.747 32.811 43.264 58.752 2.603 27.307-10.027 55.125-32.128 70.912zM172.715-21.333h-128v256h128v-256zM958.293 115.157l-249.685-113.835c-39.296-17.963-205.184-28.843-382.763 50.603-31.701 14.208-74.112 4.608-110.464-5.163v140.885c109.141 15.275 215.552 8.107 246.656-1.067l235.989-69.205c10.624-3.115 16.64-9.173 19.797-16.043 0.213-0.683 0.171-1.408 0.469-2.091 0.128-0.256 0.384-0.427 0.512-0.683 2.261-6.784 2.176-14.208 0.299-20.693-2.432-8.235-7.467-15.275-13.824-19.328-7.040-4.437-15.445-5.12-25.045-2.389l-247.893 72.747c-11.349 3.243-23.168-3.157-26.496-14.464s3.157-23.168 14.464-26.453l247.893-72.747c7.637-2.261 15.189-3.371 22.656-3.371 13.312 0 26.069 3.584 37.205 10.624 15.189 9.643 26.539 25.045 31.915 43.392 2.859 9.771 3.712 20.053 2.773 30.165l167.637 76.459c12.203 5.632 22.997 5.248 31.915-1.195 9.685-6.869 15.573-20.096 14.421-32.085-1.024-10.88-7.211-18.901-18.432-24.064zM204.715 535.552h788.139c8.661 0 16.469 5.248 19.755 13.227 3.243 7.979 1.408 17.195-4.736 23.253l-85.333 84.48c-8.363 8.277-21.888 8.235-30.165-0.171-8.277-8.363-8.192-21.888 0.171-30.165l48.469-48h-684.075l48.853 47.915c8.405 8.235 8.533 21.76 0.299 30.165-8.32 8.491-21.803 8.619-30.165 0.341l-86.144-84.48c-6.187-6.059-8.064-15.232-4.821-23.253s11.093-13.312 19.755-13.312zM204.715 364.885h788.139c8.661 0 16.469 5.205 19.755 13.227 3.243 8.021 1.408 17.195-4.736 23.296l-85.333 84.48c-8.363 8.277-21.888 8.192-30.165-0.171s-8.192-21.888 0.171-30.165l48.469-48h-684.075l48.853 47.915c8.405 8.235 8.533 21.76 0.299 30.165-8.32 8.448-21.803 8.576-30.165 0.299l-86.144-84.48c-6.187-6.059-8.064-15.275-4.821-23.296 3.285-8.021 11.093-13.269 19.755-13.269z" />
<glyph unicode="&#xe904;" glyph-name="vefskil" d="M633.216 438.101l-125.696 130.219c-0.043 0.043-0.085 0.043-0.128 0.085-3.883 3.968-9.216 6.443-15.232 6.443s-11.349-2.475-15.232-6.443c-0.043-0.043-0.085-0.043-0.128-0.085l-125.696-130.219c-8.192-8.491-7.936-21.973 0.555-30.165 4.139-4.011 9.472-5.973 14.805-5.973 5.589 0 11.179 2.176 15.36 6.528l89.003 92.245v-415.317c0-11.776 9.557-21.333 21.333-21.333s21.333 9.557 21.333 21.333v415.317l89.045-92.245c8.149-8.448 21.675-8.789 30.165-0.555 8.448 8.192 8.704 21.717 0.512 30.165zM943.019 620.629c-42.325 38.443-99.2 59.307-157.653 57.515-31.019 77.184-111.232 144.256-230.699 133.333-76.8 60.288-175.659 76.288-266.368 42.709-92.8-34.389-159.019-113.579-178.645-212.992-92.715-61.312-106.795-151.467-88.448-216.661 24.96-88.491 105.131-147.925 199.509-147.925h119.936c11.776 0 21.333 9.557 21.333 21.333s-9.557 21.333-21.333 21.333h-119.936c-86.699 0-142.037 58.709-158.464 116.864-18.987 67.371 10.112 132.395 77.824 173.909 5.291 3.243 8.875 8.619 9.899 14.72 14.72 88.491 71.936 159.317 153.131 189.44 79.061 29.312 165.461 13.824 231.339-41.259 4.565-3.797 10.539-5.504 16.299-4.821 116.011 14.208 179.84-54.955 199.509-118.571 2.987-9.643 12.672-16 22.4-14.933 52.437 4.949 104.107-11.563 141.653-45.611 32.981-29.995 51.968-70.699 51.968-111.616 0-85.717-79.403-158.208-173.44-158.208h-151.211c-11.776 0-21.333-9.557-21.333-21.333s9.557-21.333 21.333-21.333h151.211c117.163 0 216.107 91.989 216.107 200.875 0 52.949-24.021 105.173-65.92 143.232z" />
<glyph unicode="&#xe905;" glyph-name="fyrirspurn" d="M235.136 618.667h555.52c11.776 0 21.333 9.557 21.333 21.333s-9.515 21.333-21.333 21.333h-555.52c-11.776 0-21.333-9.557-21.333-21.333s9.557-21.333 21.333-21.333zM235.136 448h555.52c11.776 0 21.333 9.557 21.333 21.333s-9.557 21.333-21.333 21.333h-555.52c-11.776 0-21.333-9.557-21.333-21.333s9.557-21.333 21.333-21.333zM1002.667 874.667h-981.333c-11.776 0-21.333-9.515-21.333-21.333v-640c0-11.776 9.557-21.333 21.333-21.333h576v-188.373c0-8.704 5.248-16.512 13.312-19.797 2.603-1.024 5.291-1.536 8.021-1.536 5.675 0 11.221 2.261 15.317 6.485l197.12 203.221h171.563c11.776 0 21.333 9.557 21.333 21.333v640c0 11.819-9.557 21.333-21.333 21.333zM981.333 234.667h-159.232c-5.76 0-11.307-2.347-15.317-6.485l-166.784-171.904v157.056c0 11.776-9.557 21.333-21.333 21.333h-576v597.333h938.667v-597.333z" />
<glyph unicode="&#xe906;" glyph-name="rannsknir" d="M913.28 68.224c-148.608 57.429-249.472 125.909-264.277 160.939v16.128c74.027 12.331 131.584 46.251 135.851 140.117 14.379 12.544 23.68 30.763 23.68 51.285v142.72c0 30.891-20.736 56.704-48.896 65.152v48.341c0 136.448-111.019 247.467-247.467 247.467s-247.467-111.019-247.467-247.467v-48.555c-27.861-8.576-48.299-34.261-48.299-64.939v-142.72c0-37.632 30.635-68.267 68.267-68.267h23.253c15.872-45.269 40.32-76.075 67.157-104.021v-35.2c-13.141-30.208-101.035-97.877-264.32-161.024-21.333-8.277-35.115-28.544-35.115-51.584v-24.235c0-30.464 24.576-55.253 54.784-55.253h763.264c30.208 0 54.784 24.789 54.784 55.253v24.235c-0.043 22.741-14.165 43.477-35.2 51.627zM676.352 295.68c16.299 20.352 30.336 43.776 40.576 72.747h23.296c0.171 0 0.299 0.043 0.427 0.043-5.675-36.992-24.619-59.776-64.299-72.789zM765.867 436.693c0-14.123-11.52-25.6-25.643-25.6h-16.811v193.92h16.811c14.123 0 25.643-11.477 25.643-25.6v-142.72zM512.171 897.707c112.896 0 204.8-91.861 204.8-204.8v-6.272c-19.541 93.909-87.723 142.080-204.885 142.080-116.309 0-185.728-50.432-204.715-145.621v9.813c0 112.939 91.861 204.8 204.8 204.8zM259.072 436.693v142.72c0 14.123 11.477 25.6 25.6 25.6h16.811v-193.92h-16.811c-14.123 0-25.6 11.477-25.6 25.6zM905.771-7.637c0-6.955-5.461-12.587-12.117-12.587h-763.221c-6.656 0-12.117 5.632-12.117 12.587v24.235c0 5.248 3.2 9.984 7.893 11.776 121.259 46.933 270.165 125.013 290.603 190.72 0.64 2.048 0.939 4.181 0.939 6.315v47.659c0 5.589-2.176 10.923-6.101 14.933-28.8 29.397-53.76 57.685-67.541 104.747v233.6c0 108.928 53.333 159.701 167.936 159.701 116.693 0 168.747-49.237 168.747-159.701v-233.6c-13.483-45.995-38.997-74.709-68.395-104.747-1.237-1.237-1.963-2.816-2.816-4.309-11.776-1.024-24.96-1.707-38.613-2.176-8.576 19.755-28.16 33.664-51.029 33.664-30.677 0-55.637-24.96-55.637-55.68s24.96-55.68 55.637-55.68c23.253 0 43.093 14.379 51.413 34.688 11.819 0.384 23.467 0.939 34.987 1.792v-14.891c0-2.176 0.341-4.309 0.939-6.357 20.565-65.749 169.429-143.787 290.645-190.677 4.693-1.792 7.893-6.528 7.893-11.776v-24.235zM519.936 246.528c-7.168 0-12.971 5.845-12.971 13.013s5.803 13.013 12.971 13.013 13.013-5.845 13.013-13.013-5.845-13.013-13.013-13.013z" />
<glyph unicode="&#xe907;" glyph-name="reiknivel" d="M772.267 960h-558.933c-46.208 0-81.067-34.859-81.067-81.067v-861.867c0-46.208 34.859-81.067 81.067-81.067h558.933c38.997 0 81.067 32.64 81.067 85.333v857.6c0 46.208-34.859 81.067-81.067 81.067zM810.667 21.333c0-26.325-19.968-42.667-38.4-42.667h-558.933c-22.229 0-38.4 16.128-38.4 38.357v861.909c0 22.229 16.171 38.4 38.4 38.4h558.933c22.229 0 38.4-16.171 38.4-38.4v-857.6zM443.733 448h-59.733v59.733c0 11.776-9.557 21.333-21.333 21.333s-21.333-9.515-21.333-21.333v-59.733h-64c-11.776 0-21.333-9.515-21.333-21.333s9.557-21.333 21.333-21.333h64v-59.733c0-11.776 9.557-21.333 21.333-21.333s21.333 9.515 21.333 21.333v59.733h59.733c11.776 0 21.333 9.557 21.333 21.333s-9.557 21.333-21.333 21.333zM699.733 448h-166.4c-11.776 0-21.333-9.557-21.333-21.333s9.557-21.333 21.333-21.333h166.4c11.776 0 21.333 9.557 21.333 21.333s-9.515 21.333-21.333 21.333zM699.733 192h-166.4c-11.776 0-21.333-9.557-21.333-21.333s9.557-21.333 21.333-21.333h166.4c11.776 0 21.333 9.557 21.333 21.333s-9.515 21.333-21.333 21.333zM450.517 258.091c-8.192 8.405-21.675 8.661-30.165 0.427l-59.819-58.112-59.776 58.112c-8.448 8.235-21.973 8.021-30.165-0.427-8.235-8.448-8.021-21.973 0.427-30.165l58.923-57.259-58.923-57.259c-8.448-8.192-8.661-21.717-0.427-30.165 4.139-4.267 9.728-6.443 15.275-6.443 5.333 0 10.709 2.005 14.891 6.059l59.776 58.112 59.776-58.112c4.181-4.053 9.557-6.059 14.891-6.059 5.547 0 11.136 2.176 15.275 6.443 8.235 8.448 8.021 21.973-0.427 30.165l-58.88 57.259 58.923 57.259c8.448 8.192 8.619 21.717 0.427 30.165zM633.984 241.109c3.883 4.224 6.016 9.344 6.016 14.891s-2.133 11.093-6.4 15.36c-8.064 7.68-22.613 7.68-29.867-0.469-4.267-3.797-6.4-9.344-6.4-14.891s2.133-11.093 6.357-14.933c3.883-4.267 9.429-6.4 14.976-6.4s10.667 2.133 15.317 6.443zM603.307 100.267c-3.84-3.84-5.973-9.387-5.973-14.933s2.133-10.667 6.357-15.36c4.309-3.84 9.429-5.973 14.976-5.973s11.093 2.133 14.933 6.4c4.267 3.84 6.4 9.387 6.4 14.933s-2.133 11.093-6.4 14.933c-7.68 8.107-21.76 8.533-30.293 0zM704 832h-426.667c-11.776 0-21.333-9.515-21.333-21.333v-170.667c0-11.776 9.557-21.333 21.333-21.333h426.667c11.776 0 21.333 9.557 21.333 21.333v170.667c0 11.819-9.557 21.333-21.333 21.333zM682.667 661.333h-384v128h384v-128z" />
<glyph unicode="&#xe908;" glyph-name="manntal" d="M918.059 958.635h-851.84c-11.776 0-21.333-9.557-21.333-21.333v-979.883c0-11.776 9.557-21.333 21.333-21.333h722.645c11.776 0 21.333 9.557 21.333 21.333v703.957h107.861c11.776 0 21.333 9.557 21.333 21.333v254.592c0 11.776-9.557 21.333-21.333 21.333zM896.725 704.043h-107.861c-11.776 0-21.333-9.557-21.333-21.333v-703.957h-679.979v937.216h809.173v-211.925zM233.899 106.752h385.024c11.776 0 21.333 9.557 21.333 21.333s-9.557 21.333-21.333 21.333h-385.024c-11.776 0-21.333-9.557-21.333-21.333s9.557-21.333 21.333-21.333zM233.899 234.752h385.024c11.776 0 21.333 9.557 21.333 21.333s-9.557 21.333-21.333 21.333h-385.024c-11.776 0-21.333-9.557-21.333-21.333s9.557-21.333 21.333-21.333zM917.333 234.752h-43.179c-11.776 0-21.333-9.557-21.333-21.333s9.557-21.333 21.333-21.333h21.845v-213.333h-21.845c-11.776 0-21.333-9.557-21.333-21.333s9.557-21.333 21.333-21.333h43.179c11.776 0 21.333 9.557 21.333 21.333v256c0 11.819-9.557 21.333-21.333 21.333zM917.333 576.085h-43.179c-11.776 0-21.333-9.557-21.333-21.333s9.557-21.333 21.333-21.333h21.845v-213.333h-21.845c-11.776 0-21.333-9.557-21.333-21.333s9.557-21.333 21.333-21.333h43.179c11.776 0 21.333 9.557 21.333 21.333v256c0 11.819-9.557 21.333-21.333 21.333zM247.637 362.752h360.448c19.328 0 35.029 15.744 35.029 35.115v48.469c0 14.464-9.045 27.648-22.528 32.811-96.341 36.864-119.211 53.803-123.861 57.643v5.547c11.349 13.397 20.352 30.037 26.453 48.768 8.405 8.107 13.995 18.901 15.616 30.635 1.664 11.904-0.725 23.637-6.741 33.792v36.779c0 60.587-38.955 96.768-104.149 96.768-64.256 0-104.192-37.077-104.192-96.768v-36.779c-6.016-10.155-8.405-21.888-6.784-33.749 1.621-11.733 7.168-22.528 15.616-30.635 6.101-18.731 15.147-35.371 26.496-48.811v-4.736c-6.4-5.931-31.019-22.955-123.904-58.453-13.483-5.205-22.528-18.347-22.528-32.811v-48.469c-0.043-19.371 15.701-35.115 35.029-35.115zM255.232 441.173c124.971 48.128 140.459 67.712 145.451 83.627 0.64 2.091 0.981 4.267 0.981 6.4v19.413c0 5.632-2.219 11.008-6.187 15.019-10.539 10.667-18.773 25.771-23.851 43.605-1.323 4.736-4.267 8.875-8.32 11.648-2.219 1.579-3.712 4.011-4.096 6.741-0.256 1.963-0.085 4.864 2.261 7.723 3.157 3.797 4.864 8.619 4.864 13.525v43.435c0 35.883 20.693 54.101 61.525 54.101 41.941 0 61.483-17.195 61.483-54.101v-43.392c0-4.949 1.707-9.728 4.864-13.525 2.389-2.901 2.56-5.845 2.304-7.765-0.384-2.688-1.877-5.163-4.096-6.699-4.053-2.816-7.040-6.955-8.363-11.733-5.035-17.835-13.312-32.896-23.851-43.563-3.968-4.011-6.187-9.387-6.187-15.019v-19.371c0-2.176 0.341-4.352 0.981-6.4 5.035-15.915 20.437-35.499 145.451-83.627v-35.755h-345.216v35.712z" />
<glyph unicode="&#xe909;" glyph-name="nafnaleit" d="M995.371 67.584l-263.637 263.637c43.947 63.872 69.76 141.141 69.76 224.341 0 218.923-178.133 397.056-397.099 397.056-218.923 0-397.056-178.091-397.056-397.056s178.133-397.099 397.056-397.099c83.243 0 160.469 25.856 224.341 69.76l263.637-263.637c14.165-14.165 32.853-21.291 51.456-21.291s37.291 7.125 51.499 21.291c28.416 28.416 28.416 74.581 0.043 102.997zM50.005 555.605c0 195.413 158.976 354.389 354.389 354.389s354.432-158.976 354.432-354.389c0-195.413-159.019-354.432-354.432-354.432s-354.389 159.019-354.389 354.432zM965.205-5.205c-11.733-11.648-30.891-11.733-42.624 0l-259.84 259.84c15.275 13.099 29.525 27.349 42.624 42.624l259.84-259.84c11.733-11.733 11.733-30.848 0-42.624zM575.573 480.128c-84.821 36.267-104.491 52.693-108.416 56.405v6.528c10.069 13.269 18.048 29.696 23.424 48.171 15.573 16.512 18.731 41.984 7.765 62.464v36.736c0 59.947-35.285 95.744-94.379 95.744-58.24 0-94.421-36.693-94.421-95.744v-36.736c-10.965-20.437-7.808-45.909 7.68-62.421 5.376-18.517 13.355-34.944 23.467-48.213v-5.803c-5.333-5.589-26.539-22.101-108.459-57.173-12.587-5.419-20.693-18.091-20.693-32.299v-47.829c0-19.285 15.019-34.944 33.451-34.944h317.952c18.432 0 33.408 15.659 33.408 34.944v47.829c0 14.293-8.149 26.965-20.779 32.341zM553.685 407.723h-299.52v35.371c99.499 42.88 123.008 63.531 128.384 82.688 0.512 1.877 0.811 3.797 0.811 5.76v19.115c0 5.205-1.877 10.24-5.333 14.123-9.216 10.368-16.725 25.728-21.12 43.179-1.152 4.608-3.84 8.704-7.595 11.605-3.627 2.859-4.992 10.368-1.28 15.488 2.688 3.627 4.139 8.064 4.139 12.587v42.795c0 35.712 16.939 53.077 51.755 53.077 35.285 0 51.712-16.896 51.712-53.077v-42.795c0-4.523 1.451-8.96 4.139-12.629 3.755-5.12 2.389-12.587-1.28-15.403-3.755-2.944-6.443-7.040-7.637-11.648-4.48-17.749-11.733-32.683-21.077-43.221-3.371-3.883-5.291-8.875-5.291-14.080v-19.115c0-1.963 0.256-3.925 0.811-5.803 5.376-19.2 28.928-39.808 128.341-82.645v-35.371z" />
<glyph unicode="&#xe90a;" glyph-name="sogulegar" d="M1018.581 695.211c-4.011 4.011-9.429 6.272-15.104 6.272l-107.733 0.171v109.141c0 11.776-9.557 21.333-21.333 21.333h-104.277l5.589 42.496c0.768 5.803-0.896 11.648-4.565 16.171s-9.045 7.381-14.891 7.851l-607.104 48.597c-5.888 0.341-11.392-1.408-15.744-5.163s-6.955-9.131-7.253-14.891l-5.461-95.061h-99.627c-11.776 0-21.333-9.557-21.333-21.333v-640c0-11.776 9.557-21.333 21.333-21.333h40.875l-10.581-84.821c-0.725-5.76 0.939-11.563 4.608-16.085 3.669-4.48 9.003-7.339 14.805-7.808l607.061-49.067c0.597-0.043 1.152-0.085 1.749-0.085 10.965 0 20.309 8.448 21.205 19.584l0.896 10.709h299.221c11.733 0 21.291 9.515 21.333 21.248l2.603 636.928c0 5.675-2.261 11.093-6.272 15.147zM167.509 902.997l562.944-45.099-3.371-25.771h-563.627l4.053 70.869zM42.411 789.461h96c0.427-0.043 0.768-0.299 1.195-0.299 0.64 0 1.237 0.256 1.877 0.299h600.96c0.213 0 0.341-0.128 0.512-0.171 0.939-0.128 1.877-0.171 2.816-0.171 0.683 0 1.28 0.299 1.92 0.341h105.344v-597.333h-810.667v597.333zM96.469 81.451l8.491 68.011h564.437l-9.301-113.536-563.627 45.525zM979.627 64.555h-274.432l6.955 84.907h162.261c11.776 0 21.333 9.557 21.333 21.333v488.235l86.272-0.171-2.389-594.304zM426.581 576.768c-7.296 0-8.832 0-86.656-34.219l9.941 81.621c1.195 9.515-1.408 18.432-7.296 25.088-11.051 12.501-28.715 12.501-41.6 12.501-84.565 0-156.075-63.403-166.315-147.456-5.803-47.573 9.131-95.531 41.003-131.499 31.829-35.925 77.611-56.533 125.653-56.533 84.565 0 156.075 63.36 166.272 147.456 1.579 12.672 3.413 68.821-16.896 91.776-6.443 7.253-15.019 11.264-24.107 11.264zM425.259 478.848c-7.637-62.677-60.928-109.952-123.947-109.952-35.797 0-69.973 15.36-93.696 42.155-23.765 26.837-34.944 62.592-30.635 98.048 7.68 62.72 60.971 109.995 123.989 109.995 1.451 0 3.328 0 5.248-0.043l-13.227-108.501c-0.939-7.637 2.304-15.147 8.448-19.712 6.187-4.651 14.336-5.461 21.333-2.389 42.965 18.944 83.883 36.907 98.347 43.307 3.755-12.117 6.016-37.632 4.139-52.907zM426.581 534.101c0 0-0.043 0-0.043 0h0.043zM745.771 405.461h-169.429c-11.776 0-21.333-9.557-21.333-21.333s9.557-21.333 21.333-21.333h169.429c11.776 0 21.333 9.557 21.333 21.333s-9.557 21.333-21.333 21.333zM745.771 533.461h-169.429c-11.776 0-21.333-9.557-21.333-21.333s9.557-21.333 21.333-21.333h169.429c11.776 0 21.333 9.557 21.333 21.333s-9.557 21.333-21.333 21.333zM745.771 661.504h-169.429c-11.776 0-21.333-9.557-21.333-21.333s9.557-21.333 21.333-21.333h169.429c11.776 0 21.333 9.557 21.333 21.333s-9.557 21.333-21.333 21.333z" />
<glyph unicode="&#xe90b;" glyph-name="tilraunatolfraedi" d="M326.997 107.563c-11.52 2.987-22.955-4.395-25.685-15.829l-29.952-126.464c-2.731-11.477 4.395-22.955 15.829-25.685 1.664-0.427 3.328-0.597 4.949-0.597 9.685 0 18.432 6.613 20.736 16.427l29.952 126.464c2.731 11.477-4.352 22.955-15.829 25.685zM722.475 91.733c-2.688 11.52-14.080 18.816-25.685 15.829-11.477-2.688-18.56-14.208-15.829-25.685l29.952-126.464c2.347-9.813 11.093-16.427 20.736-16.427 1.621 0 3.243 0.171 4.907 0.597 11.477 2.688 18.56 14.208 15.829 25.685l-29.909 126.464zM1002.624 874.795h-320v42.667c0 11.776-9.557 21.333-21.333 21.333s-21.333-9.557-21.333-21.333v-42.667h-256.043v42.667c0 11.776-9.557 21.333-21.333 21.333s-21.333-9.557-21.333-21.333v-42.667h-319.957c-11.776 0-21.333-9.557-21.333-21.333v-682.667c0-11.776 9.557-21.333 21.333-21.333h981.333c11.776 0 21.333 9.557 21.333 21.333v682.667c0 11.819-9.557 21.333-21.333 21.333zM981.291 192.128h-938.667v640h938.667v-640zM330.411 405.205h-67.755c-27.861 0-51.456-23.851-51.456-52.053v-25.771c0-28.117 22.613-50.133 51.456-50.133h67.712c28.416 0 51.499 22.485 51.499 50.133v25.771c0 28.245-23.595 52.053-51.456 52.053zM339.2 327.424c0-4.821-4.523-7.467-8.832-7.467h-67.712c-4.267 0-8.789 2.645-8.789 7.467v25.771c0 4.821 4.267 9.387 8.789 9.387h67.712c4.437 0 8.832-4.608 8.832-9.387v-25.771zM543.744 533.248h-67.712c-27.861 0-51.456-23.851-51.456-52.053v-153.771c0-28.117 22.613-50.133 51.456-50.133h67.712c28.416 0 51.499 22.485 51.499 50.133v153.771c0 28.203-23.595 52.053-51.499 52.053zM552.576 327.424c0-4.651-4.48-7.467-8.832-7.467h-67.712c-4.267 0-8.789 2.645-8.789 7.467v153.771c0 4.821 4.267 9.387 8.789 9.387h67.712c4.437 0 8.832-4.651 8.832-9.387v-153.771zM637.952 609.195v-281.771c0-28.117 22.571-50.133 51.413-50.133h67.712c28.416 0 51.499 22.485 51.499 50.133v281.771c0 28.245-23.595 52.053-51.499 52.053h-67.712c-27.861 0-51.413-23.808-51.413-52.053zM680.619 609.195c0 4.821 4.267 9.387 8.747 9.387h67.712c4.437 0 8.832-4.651 8.832-9.387v-281.771c0-4.651-4.48-7.467-8.832-7.467h-67.712c-4.267 0-8.747 2.645-8.747 7.467v281.771zM317.909 491.904c5.461 0 10.923 2.091 15.104 6.229l178.731 178.731v-58.069c0-11.776 9.557-21.333 21.333-21.333s21.333 9.557 21.333 21.333v106.667c0 11.776-9.557 21.333-21.333 21.333h-106.667c-11.776 0-21.333-9.557-21.333-21.333s9.557-21.333 21.333-21.333h52.224l-175.829-175.787c-8.32-8.32-8.32-21.845 0-30.165 4.181-4.181 9.643-6.272 15.104-6.272z" />
<glyph unicode="&#xe90c;" glyph-name="visar" d="M326.827 107.563c-11.477 2.987-22.997-4.352-25.685-15.829l-29.995-126.464c-2.731-11.477 4.395-22.955 15.829-25.685 1.664-0.427 3.328-0.597 4.949-0.597 9.685 0 18.432 6.571 20.736 16.427l29.995 126.464c2.731 11.477-4.352 22.955-15.829 25.685zM722.261 91.733c-2.731 11.52-14.165 18.816-25.685 15.829-11.477-2.688-18.56-14.208-15.829-25.685l29.952-126.464c2.347-9.813 11.093-16.427 20.736-16.427 1.621 0 3.243 0.171 4.907 0.597 11.477 2.688 18.56 14.208 15.829 25.685l-29.909 126.464zM1002.411 874.795h-320v42.667c0 11.776-9.557 21.333-21.333 21.333s-21.333-9.557-21.333-21.333v-42.667h-256.043v42.667c0 11.776-9.557 21.333-21.333 21.333s-21.333-9.557-21.333-21.333v-42.667h-319.957c-11.776 0-21.333-9.557-21.333-21.333v-682.667c0-11.776 9.557-21.333 21.333-21.333h981.333c11.776 0 21.333 9.557 21.333 21.333v682.667c0 11.819-9.515 21.333-21.333 21.333zM981.077 192.128h-938.667v640h938.667v-640zM641.28 400.939c-6.571 2.56-13.611 4.096-21.077 4.096-4.011 0-7.936-0.427-11.733-1.195l-159.915 247.168c6.955 9.643 11.136 21.333 11.136 34.091 0 32.299-26.283 58.624-58.624 58.624s-58.581-26.325-58.581-58.667c0-4.139 0.469-8.149 1.28-12.032l-127.36-80.256c-9.728 7.125-21.547 11.435-34.475 11.435-32.299 0-58.581-26.283-58.581-58.581s26.283-58.624 58.581-58.624 58.624 26.283 58.624 58.624c0 3.84-0.427 7.552-1.152 11.179l127.829 80.597c9.557-6.784 21.205-10.923 33.835-10.923 4.011 0 7.936 0.427 11.733 1.195l159.957-247.211c-6.912-9.643-11.136-21.333-11.136-34.091 0-32.299 26.283-58.581 58.581-58.581s58.581 26.283 58.581 58.581c0 9.259-2.347 17.877-6.144 25.643l145.664 158.933c6.571-2.56 13.611-4.096 21.077-4.096 32.299 0 58.581 26.283 58.581 58.581s-26.283 58.581-58.581 58.581-58.581-26.24-58.581-58.539c0-9.216 2.347-17.835 6.144-25.6l-145.664-158.933zM401.067 701.013c8.789 0 15.957-7.125 15.957-15.957 0-8.789-7.125-15.915-15.957-15.915-8.789 0-15.915 7.125-15.915 15.915s7.125 15.957 15.915 15.957zM181.931 529.707c-8.789 0-15.915 7.125-15.915 15.957 0 8.789 7.125 15.915 15.915 15.915s15.957-7.125 15.957-15.915c-0.043-8.832-7.168-15.957-15.957-15.957zM620.203 330.453c-8.789 0-15.915 7.125-15.915 15.915s7.125 15.957 15.915 15.957c4.139 0 7.808-1.664 10.667-4.267 0 0 0 0 0 0 0.043-0.043 0.085-0.043 0.128-0.085 3.115-2.901 5.12-6.997 5.12-11.563 0-8.832-7.125-15.957-15.915-15.957zM839.381 601.387c8.789 0 15.915-7.125 15.915-15.915s-7.125-15.915-15.915-15.915-15.915 7.125-15.915 15.915 7.125 15.915 15.915 15.915z" />
<glyph unicode="&#xe90d;" glyph-name="visitolur" d="M749.312 806.144c11.776 0 21.333 9.557 21.333 21.333v64c0 11.776-9.557 21.333-21.333 21.333s-21.333-9.557-21.333-21.333v-64c0-11.776 9.557-21.333 21.333-21.333zM749.355 311.979c-11.776 0-21.333-9.557-21.333-21.333v-83.285c0-11.776 9.557-21.333 21.333-21.333s21.333 9.557 21.333 21.333v83.285c0 11.776-9.515 21.333-21.333 21.333zM749.355 89.856c-11.776 0-21.333-9.557-21.333-21.333v-64c0-11.776 9.557-21.333 21.333-21.333s21.333 9.557 21.333 21.333v64c0 11.776-9.515 21.333-21.333 21.333zM1019.221 495.787l-128.768 192.469c-3.925 5.845-10.496 9.387-17.536 9.472-0.043 0-0.128 0-0.213 0-6.955 0-13.483-3.413-17.493-9.088l-54.016-77.184c-8.747 7.595-19.072 13.227-30.549 16.427v45.909c0 11.776-9.557 21.333-21.333 21.333s-21.333-9.557-21.333-21.333v-45.952c-24.277-6.827-43.861-24.704-52.736-48.085l-48.683 28.757c-5.632 3.328-12.459 3.883-18.517 1.536-6.101-2.347-10.795-7.339-12.715-13.568l-63.275-204.075-107.733 50.261c-10.155 4.651-22.229 0.811-27.691-9.003l-123.989-223.659-106.24 100.48c-4.523 4.309-10.752 6.485-16.896 5.717-6.187-0.683-11.776-4.011-15.317-9.131l-126.208-183.595c-6.656-9.728-4.224-22.997 5.504-29.653 3.669-2.56 7.893-3.755 12.075-3.755 6.784 0 13.44 3.243 17.621 9.259l112.043 163.029 108.075-102.272c4.821-4.523 11.392-6.613 17.92-5.589 6.528 0.981 12.203 4.949 15.403 10.752l127.701 230.315 111.872-52.181c5.589-2.603 11.947-2.645 17.664-0.171 5.632 2.517 9.899 7.296 11.733 13.184l62.507 201.685 44.587-26.325c7.125-27.264 28.245-48.683 55.339-56.277v-45.952c0-11.776 9.557-21.333 21.333-21.333s21.333 9.557 21.333 21.333v45.952c33.451 9.387 58.155 39.808 58.155 76.203 0 7.125-1.237 13.952-3.029 20.523l46.507 66.432 111.36-166.571c4.139-6.187 10.88-9.472 17.749-9.472 4.096 0 8.192 1.152 11.861 3.584 9.813 6.571 12.459 19.797 5.931 29.611zM749.355 514.816c-20.309 0-36.821 16.512-36.821 36.821s16.555 36.821 36.821 36.821 36.821-16.512 36.821-36.821c0.043-20.309-16.512-36.821-36.821-36.821z" />
<glyph unicode="&#xe90e;" glyph-name="frettaaskrift" d="M1008.896 901.419c-9.6 7.467-22.741 8.747-33.365 3.243l-952.149-486.955c-11.349-5.675-18.048-17.579-17.024-30.549 1.109-12.544 9.6-23.125 21.547-26.965 0.043 0 0.085 0 0.128-0.043l393.515-122.88 0.085-262.571c-0.811-16.939 8.107-24.235 14.805-27.392 3.2-1.749 6.827-2.688 10.539-2.688 6.059 0 17.365 1.877 24.96 13.739l152.192 215.637 179.456-56.021c2.091-0.683 7.083-1.451 9.301-1.451 5.461 0 10.88 1.451 15.445 4.139 7.509 4.309 12.928 11.563 14.848 19.712l176.896 729.301c2.688 11.776-1.621 24.192-11.179 31.744zM464.299 21.589l-0.085 202.368 117.12-36.565-117.035-165.803zM804.523 162.389l-325.888 101.76 328.917 367.019c7.893 8.789 7.125 22.229-1.621 30.123-8.747 7.808-22.229 7.125-30.123-1.664l-341.973-381.483-366.123 114.347 904.917 462.72-168.107-692.821z" />
<glyph unicode="&#xe90f;" glyph-name="netfang" d="M877.099 725.803l-338.219-304.128c-17.408-15.659-45.739-15.659-63.189 0l-338.219 304.128c-8.747 7.851-22.229 7.168-30.123-1.579s-7.168-22.229 1.579-30.123l338.219-304.128c16.853-15.147 38.485-22.741 60.16-22.741 21.632 0 43.264 7.595 60.117 22.741l338.219 304.128c8.789 7.893 9.515 21.333 1.621 30.123s-21.547 9.472-30.165 1.579zM678.4 390.784c-8.96 7.424-22.4 6.272-30.037-2.773-7.509-9.045-6.272-22.485 2.773-30.037l226.603-188.459c3.968-3.285 8.789-4.907 13.611-4.907 6.144 0 12.16 2.645 16.427 7.723 7.509 9.045 6.272 22.485-2.773 30.037l-226.603 188.416zM336.128 390.784l-226.603-188.459c-9.045-7.552-10.283-20.992-2.731-30.037 4.224-5.077 10.283-7.723 16.427-7.723 4.779 0 9.643 1.621 13.611 4.907l226.603 188.459c9.045 7.552 10.283 20.992 2.731 30.037-7.509 9.088-20.992 10.368-30.037 2.816zM902.4 832h-781.141c-67.968 0-121.259-52.309-121.259-119.083v-530.005c0-66.645 53.291-118.912 121.259-118.912h781.141c67.029 0 121.6 53.333 121.6 118.912v530.005c0 65.664-54.528 119.083-121.6 119.083zM981.333 182.912c0-42.752-34.645-76.245-78.933-76.245h-781.141c-44.075 0-78.592 33.493-78.592 76.245v530.005c0 42.88 34.517 76.416 78.592 76.416h781.141c44.288 0 78.933-33.536 78.933-76.416v-530.005z" />
<glyph unicode="&#xe910;" glyph-name="opnunartimi" d="M744.235 448.213h-232.021v360.491c0 11.776-9.557 21.333-21.333 21.333s-21.333-9.557-21.333-21.333v-381.824c0-11.776 9.557-21.333 21.333-21.333h253.355c11.776 0 21.333 9.557 21.333 21.333s-9.515 21.333-21.333 21.333zM512 949.376c-276.48 0-501.419-224.939-501.419-501.419s224.939-501.419 501.419-501.419c276.48 0 501.419 224.896 501.419 501.376s-224.939 501.461-501.419 501.461zM512-10.795c-252.971 0-458.752 205.781-458.752 458.709 0 252.971 205.781 458.795 458.752 458.795s458.752-205.781 458.752-458.752c0-252.928-205.781-458.752-458.752-458.752z" />
<glyph unicode="&#xe911;" glyph-name="heimilisfang" d="M277.76 190.293c5.547 0 11.093 2.56 15.36 6.827 3.84 3.84 5.973 8.96 5.973 14.933 0 5.12-2.133 10.667-5.973 14.976-8.107 8.064-22.613 7.68-30.293 0-3.84-3.883-6.4-9.429-6.4-14.976 0-5.973 2.56-11.093 6.4-15.317 3.84-3.883 9.387-6.443 14.933-6.443zM576.64 233.173h44.288c11.776 0 21.333 9.557 21.333 21.333s-9.557 21.333-21.333 21.333h-44.288c-11.776 0-21.333-9.557-21.333-21.333s9.515-21.333 21.333-21.333zM576.64 361.173h44.288c11.776 0 21.333 9.557 21.333 21.333s-9.557 21.333-21.333 21.333h-44.288c-11.776 0-21.333-9.557-21.333-21.333s9.515-21.333 21.333-21.333zM747.307 233.173h42.667c11.776 0 21.333 9.557 21.333 21.333s-9.557 21.333-21.333 21.333h-42.667c-11.776 0-21.333-9.557-21.333-21.333s9.515-21.333 21.333-21.333zM747.307 105.131h42.667c11.776 0 21.333 9.557 21.333 21.333s-9.557 21.333-21.333 21.333h-42.667c-11.776 0-21.333-9.557-21.333-21.333s9.515-21.333 21.333-21.333zM747.307 361.173h42.667c11.776 0 21.333 9.557 21.333 21.333s-9.557 21.333-21.333 21.333h-42.667c-11.776 0-21.333-9.557-21.333-21.333s9.515-21.333 21.333-21.333zM1008.341 466.987l-623.957 232.107c-10.965 4.096-23.296-1.493-27.435-12.544-4.096-11.051 1.536-23.339 12.587-27.435l57.771-21.504v-217.088l-325.333-84.096c0 0 0 0-0.043 0l-83.755-21.632c-11.435-2.944-18.261-14.592-15.317-25.984 2.475-9.643 11.136-16 20.608-16 1.792 0 3.541 0.213 5.333 0.683l57.088 14.763v-332.416c0-11.776 9.557-21.333 21.333-21.333h810.667c11.776 0 21.333 9.557 21.333 21.333v491.307l54.144-20.139c2.475-0.896 4.992-1.323 7.467-1.323 8.661 0 16.811 5.333 20.011 13.909 4.096 11.008-1.451 23.296-12.501 27.392zM128.597 299.221l298.667 77.269v-399.317h-42.667v149.333c0 11.776-9.557 21.333-21.333 21.333h-170.667c-11.776 0-21.333-9.557-21.333-21.333v-149.333h-42.667v322.048zM213.931-22.869v128h128v-128h-128zM597.973-22.869v128h42.667v-128h-42.667zM896.64-22.869h-213.333v149.333c0 11.776-9.557 21.333-21.333 21.333h-85.333c-11.776 0-21.333-9.557-21.333-21.333v-149.333h-85.333v644.608l426.667-158.763v-485.845z" />
<glyph unicode="&#xe912;" glyph-name="simanumer" d="M720.043 381.483c-15.872 16.085-41.472 16.683-58.581 0.768 0 0-57.429-56.149-60.16-59.136-5.931-3.285-35.243 4.48-85.888 47.403-81.536 69.248-131.2 151.339-127.317 166.059l62.421 61.184c7.979 7.851 12.416 18.347 12.459 29.525 0.085 11.179-4.181 21.675-11.947 29.483l-204.203 208.213c-7.68 7.893-18.389 12.501-29.44 12.587-10.752 0.512-21.547-4.139-29.653-11.989-6.741-6.613-13.739-13.227-20.821-19.925-50.517-47.744-107.819-101.803-109.525-190.976-2.048-106.752 76.373-237.44 246.869-411.349 171.605-175.061 301.483-256.768 408.235-256.768 1.067 0 2.176 0 3.243 0.043 91.691 1.408 148.864 63.445 199.339 118.229l10.752 11.648c15.275 16.384 14.976 41.771-0.811 57.856l-204.971 207.147zM883.712 133.76c-46.805-50.773-95.189-103.339-168.619-104.448-0.853-0.043-1.664-0.043-2.517-0.043-93.312 0-216.96 79.829-377.856 243.925-159.701 162.944-236.459 287.445-234.667 380.672 1.365 71.253 49.579 116.736 96.128 160.768 7.296 6.912 14.507 13.696 20.181 20.523l204.288-207.019-62.976-61.696c-22.357-23.595-10.837-66.176 34.176-126.592 45.909-61.568 166.784-186.155 228.395-155.008 1.835 0.896 6.784 4.395 8.277 5.76 3.712 3.371 55.979 54.443 61.824 60.203l204.245-205.227-10.88-11.819zM860.971 519.467c-0.384-11.776 8.875-21.632 20.608-22.016 0.256 0 0.512 0 0.725 0 11.477 0 20.949 9.088 21.333 20.608 2.816 87.040-29.312 168.704-90.496 229.888-61.227 61.184-142.251 93.269-229.888 90.453-11.733-0.384-20.992-10.24-20.608-22.016 0.384-11.691 8.235-21.504 22.059-20.608 74.368 2.304 145.451-25.216 198.272-78.037 52.736-52.779 80.427-123.179 77.995-198.272zM915.371 850.219c-88.363 88.405-206.891 134.827-331.861 132.821-11.776-0.256-21.12-10.027-20.864-21.803s10.112-21.931 21.803-20.864c113.835 2.901 220.715-40.235 300.8-120.32 80.128-80.128 122.88-186.965 120.363-300.843-0.256-11.776 9.088-21.504 20.864-21.803 0.171 0 0.299 0 0.469 0 11.563 0 21.077 9.259 21.333 20.864 2.731 125.611-44.501 243.499-132.907 331.947zM562.688 671.061c0.811-11.819 11.051-20.608 22.699-19.883 35.499 2.261 70.272-10.667 95.275-35.669 25.045-25.003 38.059-59.776 35.712-95.36-0.768-11.733 8.107-21.931 19.883-22.699 0.512 0 0.939-0.043 1.451-0.043 11.136 0 20.48 8.661 21.248 19.925 3.115 47.829-14.421 94.592-48.128 128.299s-79.616 51.029-128.299 48.085c-11.733-0.768-20.608-10.923-19.84-22.656z" />
<glyph unicode="&#xe913;" glyph-name="tungumal" d="M511.403 948.48c-277.12 0-502.528-225.451-502.528-502.528s225.451-502.528 502.528-502.528c277.077 0 502.528 225.408 502.528 502.528s-225.451 502.528-502.528 502.528zM511.403-13.909c-253.568 0-459.861 206.293-459.861 459.861s206.293 459.861 459.861 459.861 459.861-206.293 459.861-459.861c0.043-253.568-206.251-459.861-459.861-459.861zM900.821 621.355c-11.733-0.64-20.779-10.667-20.139-22.443 0.981-18.133-19.115-39.339-56.576-59.605-57.173-30.976-48.299-56.192-26.88-117.205 16.171-46.123-73.003-195.541-112.597-226.901-5.12 10.795-9.728 37.675-10.112 61.355 0 83.584 0 209.835-111.104 252.203-31.147 11.904-73.6 27.221-98.645 32.683-1.664 0.341-6.101 1.323-7.296 11.435-1.92 16.512 7.893 39.893 25.557 48.341 9.856 4.693 16.469 3.883 23.467 3.115 7.253-0.853 19.499-2.261 29.355 7.253 11.52 11.179 11.392 27.819 8.277 63.147-2.347 27.179-11.563 47.488-27.349 60.288-24.704 20.053-57.429 16.085-81.28 13.227-6.571-0.811-12.672-1.579-17.792-1.579-47.445 0-55.040-35.541-71.595-113.365l-3.115-15.232c-0.171-0.64-0.299-1.195-0.427-1.749-1.408 1.707-2.731 3.456-3.627 4.992-3.115 8.192-7.509 51.413-9.685 86.656-0.597 9.429-7.253 17.323-16.469 19.456-9.045 2.048-18.645-2.005-23.339-10.197l-33.835-59.221c-1.067-1.92-1.323-2.005-1.792-4.139-0.043-0.171-7.125-15.403-49.408-30.293-5.376-1.92-8.405-2.219-9.131-2.688-4.779 11.349 5.675 56.064 22.272 94.208 4.693 10.795-0.256 23.381-11.051 28.075-10.837 4.693-23.381-0.213-28.075-11.051-13.952-32-43.221-109.739-14.165-140.928 8.619-9.259 25.131-18.176 54.4-7.893 52.224 18.475 68.907 41.131 74.24 53.291 2.475-17.963 5.291-29.781 8.405-35.243 3.584-6.315 22.827-37.632 50.261-33.195 16.683 2.603 27.861 16.384 33.109 40.96l3.243 15.232c15.701 73.685 18.901 79.573 29.867 79.573 6.571 0 14.379 0.896 22.869 1.877 18.133 2.219 38.699 4.651 49.28-3.968 6.443-5.248 10.411-15.616 11.733-30.891 0.939-10.923 1.365-18.432 1.536-23.552-9.728 0.469-22.955-0.299-38.571-7.808-37.077-17.749-53.163-60.544-49.493-91.776 2.944-25.259 18.133-43.264 40.619-48.128 17.536-3.797 50.389-14.763 92.501-30.848 77.312-29.44 83.584-113.621 83.584-212.651 0.427-25.429 4.565-86.229 34.432-102.059 3.669-1.963 9.344-4.096 16.427-4.096 6.528 0 14.293 1.835 22.784 7.381 39.552 25.771 159.104 201.728 132.011 278.784-18.261 51.925-18.261 51.925 6.955 65.579 54.315 29.397 80.853 62.891 78.848 99.456-0.64 11.733-9.216 21.12-22.485 20.139zM274.645 388.523c-14.379 5.461-34.091 12.971-39.595 18.432-15.445 15.488-27.093 22.443-38.315 29.141-7.424 4.437-15.488 9.259-26.112 17.664-9.173 7.296-20.267 8.917-30.336 4.565-8.064-3.499-32.683-14.080-43.093-132.267-1.024-11.733 7.637-22.101 19.371-23.125 11.947-1.024 22.101 7.68 23.125 19.371 3.115 35.243 9.813 71.68 16.043 89.301 7.125-4.992 13.269-8.661 19.072-12.16 10.24-6.144 18.347-10.965 30.080-22.699 11.904-11.904 32.64-19.84 54.528-28.16 9.387-3.584 23.339-8.917 32-13.44l-5.077-4.437c-30.805-26.155-47.403-44.075-88.235-163.84-3.797-11.136 2.133-23.253 13.312-27.093 2.261-0.768 4.608-1.109 6.869-1.109 8.875 0 17.152 5.589 20.181 14.464 38.869 113.92 51.883 125.013 75.477 145.067 3.627 3.072 7.509 6.357 11.648 10.069 13.867 12.501 14.933 25.131 13.355 33.493-4.352 23.893-32.128 34.475-64.299 46.763z" />
<glyph unicode="&#xe914;" glyph-name="gagnabanki" d="M960 405.333h-896c-12.8 0-21.333-8.533-21.333-21.333v-256c0-12.8 8.533-21.333 21.333-21.333h896c12.8 0 21.333 8.533 21.333 21.333v256c0 12.8-8.533 21.333-21.333 21.333zM938.667 149.333h-853.333v213.333h853.333v-213.333zM789.333 200.533c29.867 0 55.467 25.6 55.467 55.467s-25.6 55.467-55.467 55.467-55.467-25.6-55.467-55.467 25.6-55.467 55.467-55.467zM789.333 268.8c8.533 0 12.8-4.267 12.8-12.8s-4.267-12.8-12.8-12.8-12.8 4.267-12.8 12.8c0 8.533 4.267 12.8 12.8 12.8zM960 789.333h-896c-12.8 0-21.333-8.533-21.333-21.333v-256c0-12.8 8.533-21.333 21.333-21.333h896c12.8 0 21.333 8.533 21.333 21.333v256c0 12.8-8.533 21.333-21.333 21.333zM938.667 533.333h-853.333v213.333h853.333v-213.333zM789.333 584.533c29.867 0 55.467 25.6 55.467 55.467s-25.6 55.467-55.467 55.467-55.467-25.6-55.467-55.467 25.6-55.467 55.467-55.467zM789.333 652.8c8.533 0 12.8-4.267 12.8-12.8s-4.267-12.8-12.8-12.8-12.8 4.267-12.8 12.8c0 8.533 4.267 12.8 12.8 12.8z" />
<glyph unicode="&#xe915;" glyph-name="leit" d="M992.469 72.448l-261.12 261.12c43.477 63.317 69.077 139.819 69.077 222.251 0 217.045-176.597 393.643-393.6 393.643-217.045 0-393.643-176.597-393.643-393.643s176.597-393.643 393.643-393.643c82.432 0 158.976 25.6 222.251 69.077l261.12-261.12c13.653-13.653 31.829-21.205 51.115-21.205 0.043 0 0.043 0 0.043 0.043 19.328 0 37.461 7.509 51.072 21.163 28.245 28.203 28.245 74.069 0.043 102.315zM55.851 555.819c0 193.536 157.44 350.976 350.976 350.976s350.933-157.44 350.933-350.976c0-193.493-157.397-350.976-350.933-350.976s-350.976 157.44-350.976 350.976zM962.304 0.299c-5.589-5.589-13.013-8.661-20.907-8.661h-0.043c-7.936 0-15.317 3.072-20.949 8.661l-257.323 257.323c15.019 12.928 29.013 26.923 41.941 41.941l257.323-257.323c11.52-11.563 11.52-30.336-0.043-41.941zM431.744 833.323c-81.323 2.859-157.611-27.349-214.784-84.523-57.216-57.216-87.253-133.504-84.565-214.827 0.384-11.563 9.856-20.608 21.291-20.608 0.256 0 0.469 0 0.725 0 11.776 0.384 20.992 10.24 20.608 22.016-2.304 69.376 23.296 134.443 72.107 183.211 48.768 48.768 114.389 73.941 183.211 72.107 12.544-1.621 21.632 8.832 22.016 20.608 0.384 11.819-8.832 21.675-20.608 22.016z" />
<glyph unicode="&#xe916;" glyph-name="thin-0021_calendar_month_day_planner" d="M848.3 2h-672.6c-59.5 0-109.7 50.2-109.7 109.7v672.6c0 59.5 50.2 109.7 109.7 109.7h672.6c59.5 0 109.7-50.2 109.7-109.7v-672.6c0-59.5-50.2-109.7-109.7-109.7zM175.7 852c-17.6 0-34.5-7.2-47.5-20.2s-20.2-29.9-20.2-47.5v-672.6c0-17.6 7.2-34.5 20.2-47.5s29.9-20.2 47.5-20.2h672.6c17.6 0 34.5 7.2 47.5 20.2s20.2 29.9 20.2 47.5v672.6c0 17.6-7.2 34.5-20.2 47.5s-29.9 20.2-47.5 20.2h-672.6zM925.6 630.3h-826c-11.3 0-20.4 9.4-20.4 21s9.1 21 20.4 21h826c11.3 0 20.4-9.4 20.4-21s-9.1-21-20.4-21zM349.4 737.4h-3.7c-11.6 0-21 9.4-21 21s9.4 21 21 21h3.7c11.6 0 21-9.4 21-21s-9.4-21-21-21zM678.3 737.4h-3.7c-11.6 0-21 9.4-21 21s9.4 21 21 21h3.7c11.6 0 21-9.4 21-21s-9.4-21-21-21zM678.3 153.5c-11.6 0-21 9.4-21 21v298.5l-49.1-18.7c-10.8-4.1-23 1.3-27.1 12.1s1.3 23 12.1 27.1l77.6 29.6c6.5 2.5 13.7 1.6 19.4-2.3s9.1-10.4 9.1-17.3v-328.9c0-11.7-9.4-21.1-21-21.1zM417.8 147.9c-54.9 0-112.4 27.8-134.8 68.1-5.6 10.1-2 22.9 8.2 28.6 10.1 5.6 22.9 2 28.6-8.2 8.2-14.7 25.7-28.1 48.1-36.9 23.2-9 48.7-11.9 70-7.8 31.2 5.9 49.2 24.7 53.3 55.8 2.9 21.6-1.2 38-12.6 50-24.1 25.5-76.3 27.5-94.3 26.1-8.4-0.6-16.3 3.8-20.2 11.2s-3 16.5 2.3 23l101.5 124.7h-151.8c-11.6 0-21 9.4-21 21s9.4 21 21 21h195.9c8.1 0 15.5-4.7 19-12s2.4-16-2.7-22.3l-103-126.5c27.2-3.7 61.1-13.3 83.8-37.3 20.3-21.5 28.3-49.9 23.7-84.4-6.5-48.9-38.3-82.2-87.1-91.5-9.1-1.7-18.5-2.6-27.9-2.6z" />
<glyph unicode="&#xe917;" glyph-name="frettasafn" d="M489.771 405.333h-212.437c-11.776 0-21.333-9.515-21.333-21.333s9.557-21.333 21.333-21.333h212.437c11.776 0 21.333 9.557 21.333 21.333s-9.557 21.333-21.333 21.333zM489.771 277.333h-212.437c-11.776 0-21.333-9.515-21.333-21.333s9.557-21.333 21.333-21.333h212.437c11.776 0 21.333 9.557 21.333 21.333s-9.557 21.333-21.333 21.333zM489.771 533.333h-212.437c-11.776 0-21.333-9.557-21.333-21.333s9.557-21.333 21.333-21.333h212.437c11.776 0 21.333 9.557 21.333 21.333s-9.557 21.333-21.333 21.333zM489.771 661.333h-212.437c-11.776 0-21.333-9.515-21.333-21.333s9.557-21.333 21.333-21.333h212.437c11.776 0 21.333 9.557 21.333 21.333s-9.557 21.333-21.333 21.333zM873.771 277.333h-255.104c-11.776 0-21.333-9.557-21.333-21.333 0 0 0 0 0 0s0 0 0 0c0-11.776 9.557-21.333 21.333-21.333h255.104c11.776 0 21.333 9.557 21.333 21.333 0 0 0 0 0 0s0 0 0 0c0 11.819-9.515 21.333-21.333 21.333zM873.813 661.333h-255.104c-11.776 0-21.333-9.557-21.333-21.333v-256c0-11.776 9.557-21.333 21.333-21.333h255.104c11.776 0 21.333 9.557 21.333 21.333v256c0 11.776-9.515 21.333-21.333 21.333zM852.48 405.333h-212.437v213.333h212.437v-213.333zM928.085 787.072h-778.88c-11.776 0-21.333-9.557-21.333-21.333v-40.107h-106.368c-11.776 0-21.333-9.557-21.333-21.333v-512.768c0-46.848 38.912-86.357 84.992-86.357 1.024 0 2.005 0.299 3.029 0.341 0.256 0 0.469-0.171 0.768-0.171h841.685c51.2 0 92.843 42.197 92.843 94.123v488.363c-0.043 54.741-42.837 99.243-95.403 99.243zM42.837 191.531v491.435h85.035v-491.093c0-23.467-19.925-44.032-42.667-44.032-22.571-0.043-42.368 20.395-42.368 43.691zM980.779 199.424c0-28.885-22.059-51.456-50.176-51.456h-772.608c7.765 13.013 12.501 27.947 12.501 43.861v512.427c0 0.043 0 0.085 0 0.085v40.064h757.547c28.587 0 52.693-25.899 52.693-56.576v-488.405z" />
<glyph unicode="&#xe918;" glyph-name="umhverfi" d="M767.061 933.803c-2.133 9.771-10.752 16.768-20.736 16.811-0.043 0-0.043 0-0.085 0-9.941 0-18.645-6.912-20.779-16.64l-97.835-434.219c-22.613 25.813-50.816 46.037-83.2 57.685-22.187 111.744-111.829 191.488-217.685 191.488-66.304 0-128.683-31.872-171.136-87.381-45.013-58.88-61.867-136.704-46.251-210.859-76.885-57.813-78.208-157.781-38.4-226.389 36.267-62.464 110.677-105.131 195.541-59.563 10.368 5.589 14.251 18.517 8.704 28.885-5.547 10.325-18.389 14.208-28.885 8.704-63.616-34.261-114.389 2.005-138.411 43.435-31.915 54.912-29.781 135.851 36.992 177.621 7.979 4.992 11.733 14.592 9.259 23.68-17.835 65.792-4.608 136.277 35.413 188.629 34.304 44.885 84.352 70.613 137.216 70.613 88.661 0 163.413-70.784 177.792-168.277 1.237-8.32 7.211-15.147 15.317-17.451 71.637-20.139 121.685-91.648 121.685-173.952 0-70.741-35.968-133.163-93.824-162.944-50.773-26.112-106.752-22.016-153.6 11.563-9.6 6.784-22.912 4.523-29.739-4.949-6.869-9.6-4.608-22.912 4.949-29.781 33.664-24.021 72.021-36.267 110.72-36.267 24.277 0 48.597 5.077 72.021 14.763l-10.667-49.067c-1.365-6.315 0.171-12.928 4.267-17.92 3.883-5.077 9.984-8.021 16.469-8.021h162.688v-104.491c0-11.776 9.557-21.333 21.333-21.333s21.333 9.557 21.333 21.333v104.491h162.645c6.443 0 12.587 2.901 16.64 7.979 4.053 4.992 5.589 11.605 4.224 17.92l-183.979 843.904zM767.531 106.667v107.435c0 11.776-9.557 21.333-21.333 21.333s-21.333-9.557-21.333-21.333v-107.435h-136.235l13.611 62.507c51.115 41.387 81.92 105.899 81.92 177.408 0 37.248-8.661 72.661-23.893 103.936l85.675 380.117 157.781-723.968h-136.192zM413.269 361.301c20.053 12.331 43.051 13.739 70.357 4.395 11.136-3.797 23.253 2.091 27.093 13.269 3.84 11.136-2.091 23.253-13.227 27.093-39.552 13.568-75.392 10.752-106.539-8.32-21.077-12.928-37.376-32.171-50.091-53.035v166.571c0 11.776-9.557 21.333-21.333 21.333s-21.333-9.557-21.333-21.333v-153.813c-15.659 17.408-34.859 32.512-56.789 36.352-15.701 2.773-39.253 0.981-62.933-23.211-8.235-8.491-8.107-22.016 0.299-30.251 8.448-8.235 21.931-8.149 30.165 0.341 11.52 11.776 19.797 12.032 25.045 11.051 24.064-4.181 51.285-45.013 64.171-70.016v-322.176c0-11.776 9.557-21.333 21.333-21.333s21.333 9.557 21.333 21.333v258.901c0.597 1.536 1.323 3.029 1.579 4.736 4.096 28.8 24.661 109.824 70.869 138.112z" />
<glyph unicode="&#xe919;" glyph-name="efnahagur" d="M1019.733 362.667c0 84.053-171.691 128-341.333 128-2.859 0-5.675-0.128-8.533-0.128v103.851c2.517 6.443 4.267 13.013 4.267 20.011 0 4.608-1.792 8.661-4.267 12.117v99.755c2.517 6.528 4.267 13.269 4.267 20.395 0 81.237-169.557 123.733-337.067 123.733s-337.067-42.496-337.067-123.733v-516.267c0-85.035 174.72-123.733 337.067-123.733v-4.267c0-80.341 175.872-123.691 341.333-123.691s341.333 43.392 341.333 123.691v251.733c0 1.195-0.469 2.219-0.683 3.328 0.171 1.749 0.683 3.413 0.683 5.205zM977.067 226.133c0-32.299-119.125-81.067-298.667-81.067s-298.667 48.811-298.667 81.067v71.339c61.397-41.387 180.48-62.805 298.667-62.805s237.269 21.419 298.667 62.805v-71.339zM627.2 603.52c-21.888-31.317-132.139-70.187-290.133-70.187-189.568 0-294.4 47.957-294.4 81.067v68.864c60.8-39.765 178.048-60.331 294.4-60.331 113.707 0 228.224 19.627 290.133 57.643v-77.056zM42.667 422.059c61.696-40.405 180.949-59.392 294.4-59.392 0-1.792 0.512-3.456 0.683-5.205-0.213-1.109-0.683-2.133-0.683-3.328v-76.8c-189.568 0-294.4 47.915-294.4 81.067v63.659zM977.067 362.667c0-34.773-116.352-85.333-298.667-85.333s-298.667 50.56-298.667 85.333c0 1.749 0.512 3.584 1.109 5.419 3.157 2.731 5.248 6.357 6.357 10.496 27.904 32.469 135.296 69.419 291.2 69.419 182.357 0 298.667-50.517 298.667-85.333zM353.792 405.333h-16.725c-189.568 0-294.4 47.957-294.4 81.067v63.659c61.696-40.405 180.949-59.392 294.4-59.392 111.403 0 227.499 20.181 290.133 58.496v-59.947c-120.021-6.315-232.192-34.645-273.408-83.883zM337.067 827.733c165.077 0 274.987-40.491 291.883-72.704-1.109-2.56-1.749-5.376-1.749-8.363v-11.264c-21.675-31.701-129.963-69.803-290.133-69.803-179.712 0-294.4 48-294.4 81.067s114.688 81.067 294.4 81.067zM42.667 230.4v63.659c61.696-40.405 180.949-59.392 294.4-59.392v-85.333c-189.568 0-294.4 47.915-294.4 81.067zM678.4 21.333c-179.541 0-298.667 48.811-298.667 81.024v13.483c2.475 3.499 4.267 7.552 4.267 12.16s-1.792 8.661-4.267 12.16v23.893c62.123-40.32 182.827-61.653 298.667-61.653s236.544 21.333 298.667 61.653v-61.653c0-32.256-119.125-81.067-298.667-81.067z" />
<glyph unicode="&#xe91a;" glyph-name="thin-0159b_arrow_back_left_X" d="M1002.667 469.333h-930.133l251.733 251.733c8.533 8.533 8.533 21.333 0 29.867s-21.333 8.533-29.867 0v0l-285.867-285.867c0 0-4.267-4.267-4.267-8.533s0-4.267 0-8.533 4.267-12.8 4.267-17.067l285.867-285.867c8.533-8.533 21.333-8.533 29.867 0s8.533 21.333 0 29.867v0l-251.733 251.733h930.133c12.8 0 21.333 8.533 21.333 21.333s-8.533 21.333-21.333 21.333z" />
<glyph unicode="&#xe91b;" glyph-name="samfelag" d="M661.291 120.661c-69.077 27.051-87.936 40.021-91.947 42.496v1.365c8.405 10.496 15.104 23.253 19.755 37.547 6.699 6.912 11.136 15.957 12.501 25.685 1.323 9.899-0.469 19.712-5.12 28.288v27.776c0 50.432-31.744 80.555-84.907 80.555-52.395 0-84.907-30.891-84.907-80.555v-27.776c-4.651-8.576-6.443-18.347-5.12-28.245 1.323-9.728 5.76-18.731 12.459-25.728 4.651-14.251 11.392-27.051 19.797-37.547v-0.213c-6.187-5.035-26.539-18.005-91.947-43.648-12.203-4.693-20.395-16.811-20.395-29.995v-38.059c0-17.749 14.293-32.171 31.872-32.171h276.523c17.579 0 31.872 14.421 31.872 32.171v38.059c0 13.227-8.235 25.301-20.437 29.995zM639.061 63.147h-254.976v20.437c86.144 34.219 106.24 50.731 111.403 67.456 0.64 2.048 0.939 4.181 0.939 6.272v15.189c0 5.547-2.133 10.88-6.016 14.848-7.509 7.765-13.611 19.2-17.195 32.299-1.28 4.693-4.651 13.867-8.619 16.725 3.072 3.797 4.736 8.533 4.736 13.397v34.091c0 25.813 13.397 37.888 42.24 37.888 29.227 0 42.24-11.648 42.24-37.888v-34.091c0-4.864 1.195-14.592 4.267-18.389-4.011-2.816-6.912-6.955-8.192-11.691-3.584-13.099-9.728-24.576-17.195-32.299-3.84-4.011-5.973-9.301-5.973-14.848v-15.189c0-2.133 0.299-4.267 0.939-6.229 5.163-16.811 25.259-33.365 111.403-67.499v-20.48zM1002.667 590.080c-69.12 27.051-87.936 40.021-91.947 42.496v1.365c8.405 10.539 15.104 23.253 19.755 37.504 6.656 6.912 11.093 15.872 12.459 25.557 1.365 9.941-0.427 19.755-5.077 28.416v27.776c0 50.432-31.744 80.555-84.907 80.555-52.395 0-84.907-30.891-84.907-80.555v-27.776c-4.693-8.619-6.485-18.432-5.12-28.331 1.365-9.728 5.803-18.688 12.416-25.6 4.651-14.251 11.392-27.008 19.797-37.547v-0.213c-6.187-5.035-26.496-18.005-91.989-43.691-12.16-4.779-20.352-16.811-20.352-29.952v-38.059c0-17.749 14.293-32.171 31.872-32.171h276.523c17.579 0 31.872 14.421 31.872 32.171v38.272c-0.085 13.312-8.107 25.003-20.395 29.781zM980.437 532.523h-254.976v20.48c86.144 34.176 106.24 50.731 111.36 67.456 0.64 2.048 0.939 4.139 0.939 6.272v15.189c0 5.504-2.133 10.837-5.973 14.805-7.552 7.808-13.611 19.285-17.195 32.299-1.323 4.736-4.608 13.909-8.619 16.768 3.029 3.797 4.693 8.491 4.693 13.355v34.048c0 25.856 13.397 37.888 42.24 37.888 29.227 0 42.24-11.691 42.24-37.888v-34.048c0-4.821 1.237-14.549 4.309-18.347-4.053-2.859-6.912-6.997-8.235-11.733-3.584-13.056-9.685-24.533-17.195-32.299-3.84-3.968-5.973-9.301-5.973-14.805v-15.189c0-2.133 0.341-4.224 0.939-6.272 5.12-16.768 25.259-33.323 111.403-67.499v-20.48zM319.957 590.080c-69.12 27.051-87.936 40.021-91.947 42.496v1.365c8.363 10.496 15.104 23.253 19.755 37.504 6.699 6.912 11.093 15.957 12.459 25.643 1.365 9.899-0.427 19.712-5.12 28.373v27.733c0 50.432-31.744 80.555-84.907 80.555-52.352 0-84.864-30.848-84.864-80.555v-27.733c-4.693-8.619-6.485-18.389-5.12-28.331 1.365-9.728 5.76-18.688 12.459-25.643 4.651-14.251 11.349-27.008 19.755-37.547v-0.213c-6.187-5.035-26.539-18.048-92.032-43.691-12.16-4.779-20.352-16.811-20.352-29.952v-38.059c0-17.749 14.293-32.171 31.915-32.171h276.523c17.579 0 31.872 14.421 31.872 32.171v38.059c0 13.184-8.192 25.259-20.395 29.995zM297.685 532.523h-254.976v20.437c86.187 34.176 106.283 50.773 111.445 67.499 0.597 2.048 0.939 4.139 0.939 6.272v15.189c0 5.504-2.133 10.837-5.973 14.805-7.509 7.765-13.611 19.285-17.237 32.341-1.28 4.736-4.608 13.867-8.619 16.725 3.029 3.797 4.736 8.491 4.736 13.355v34.048c0 25.856 13.397 37.888 42.24 37.888 29.227 0 42.24-11.691 42.24-37.888v-34.048c0-4.864 1.237-14.592 4.309-18.347-4.053-2.859-6.955-6.997-8.277-11.733-3.627-13.099-9.728-24.576-17.195-32.341-3.84-3.968-5.973-9.301-5.973-14.805v-15.189c0-2.133 0.299-4.224 0.939-6.272 5.12-16.768 25.259-33.365 111.403-67.499v-20.437zM342.229 787.797c105.813 61.525 243.328 61.568 349.227 0 3.371-1.963 7.040-2.901 10.709-2.901 7.339 0 14.464 3.797 18.475 10.624 5.931 10.197 2.475 23.253-7.765 29.184-118.827 69.163-273.28 69.12-392.107 0-10.197-5.931-13.611-18.987-7.723-29.184 5.931-10.197 18.944-13.611 29.184-7.723zM885.888 466.176c-11.52 1.365-22.272-7.040-23.637-18.773-11.563-101.931-67.627-193.109-153.771-250.155-6.229-4.139-9.557-10.923-9.557-17.792 0-4.096 1.152-8.149 3.541-11.776 4.139-6.229 10.923-9.557 17.792-9.557 4.096 0 8.149 1.152 11.776 3.541 96.64 64.043 159.531 166.4 172.587 280.875 0.085 0.853 0.128 1.664 0.128 2.475 0.043 10.709-7.979 19.925-18.859 21.163zM171.392 447.403c-1.323 11.691-11.435 20.48-23.595 18.773-10.88-1.237-18.901-10.453-18.901-21.163 0-0.811 0.043-1.621 0.128-2.475 13.013-114.475 75.904-216.875 172.544-280.875 3.627-2.389 7.723-3.541 11.776-3.541 6.912 0 13.696 3.328 17.792 9.557 2.389 3.627 3.541 7.723 3.541 11.733 0 6.912-3.371 13.696-9.557 17.835-86.059 57.045-142.123 148.267-153.728 250.155z" />
<glyph unicode="&#xe91c;" glyph-name="ibuar" d="M695.552 285.355c-187.435 74.069-221.909 105.429-228.011 115.2v22.443c21.248 24.405 37.931 55.851 48.64 91.776 13.653 12.16 22.741 29.184 25.344 47.744 2.645 19.115-1.579 38.059-11.947 54.059v71.893c0 100.565-60.757 158.208-166.741 158.208-104.448 0-166.784-59.136-166.784-158.208v-71.936c-10.368-16-14.592-34.816-11.989-53.931 2.603-18.56 11.648-35.584 25.301-47.829 10.709-35.925 27.392-67.371 48.64-91.776v-22.357c-5.717-8.747-38.699-40.491-228.096-115.371-17.621-6.997-28.971-23.979-28.971-43.221v-87.979c0-25.6 20.395-46.379 45.44-46.379h632.704c25.088 0 45.44 20.779 45.44 46.379v87.979c0.043 19.072-11.605 36.48-28.971 43.307zM681.899 154.155c0-2.219-1.451-3.712-2.773-3.712h-632.704c-1.365 0-2.773 1.493-2.773 3.712l2.005 91.52c210.005 82.987 246.229 118.357 254.123 144.256 0.597 2.048 0.896 4.139 0.896 6.229v35.157c0 5.504-2.133 10.752-5.931 14.763-20.565 21.504-36.523 51.499-46.165 86.699-1.28 4.693-4.139 8.832-8.107 11.691-7.68 5.504-12.843 14.293-14.208 24.021-1.408 10.027 1.323 19.968 7.68 27.947 2.987 3.755 4.608 8.448 4.608 13.269v78.763c0 75.605 42.923 115.541 124.117 115.541 82.347 0 124.075-38.869 124.075-115.541v-78.72c0-4.821 1.621-9.515 4.608-13.269 6.357-8.021 9.131-17.963 7.723-28.075-1.365-9.728-6.528-18.475-14.165-23.979-3.968-2.859-6.869-6.997-8.149-11.691-9.6-35.243-25.557-65.195-46.123-86.699-3.797-3.968-5.931-9.259-5.931-14.763v-35.157c0-2.091 0.299-4.181 0.939-6.229 7.893-25.856 44.16-61.269 254.123-144.256l2.005-3.541v-87.936zM994.816 273.536c-48.853 18.645-99.968 28.331-141.056 36.139-27.819 5.248-65.493 12.416-73.856 17.707v19.541c92.715 4.267 132.309 33.92 136.789 37.504 5.504 4.437 8.448 11.349 7.893 18.389s-4.608 13.355-10.837 16.853c-19.883 11.179-39.936 100.395-46.037 174.976 0 76.672-42.795 144.853-111.659 177.835-63.659 30.464-133.504 23.168-186.667-19.584-9.173-7.381-10.624-20.821-3.243-29.995 7.424-9.173 20.779-10.624 29.995-3.243 40.021 32.213 92.843 37.717 141.483 14.379 53.931-25.813 87.424-79.232 87.509-141.099 2.773-34.688 13.355-135.253 44.245-185.685-20.224-8.107-55.979-18.005-110.848-18.133-11.776-0.043-21.291-9.6-21.291-21.333v-46.037c0-2.176 0.341-4.352 0.981-6.4 9.131-28.928 48.299-36.352 107.605-47.573 39.424-7.467 88.448-16.768 134.741-35.456l-1.493-81.835h-186.752c-11.776 0-21.333-9.557-21.333-21.333s9.557-21.333 21.333-21.333h186.752c24.32 0 44.16 19.84 44.16 44.203v80.299c0.043 18.133-11.349 34.731-28.416 41.216z" />
<glyph unicode="&#xe91d;" glyph-name="thin-0159b_arrow_back_right_X" d="M21.333 426.667h930.133l-251.733-251.733c-8.533-8.533-8.533-21.333 0-29.867s21.333-8.533 29.867 0c0 0 0 0 0 0l285.867 285.867c0 0 4.267 4.267 4.267 8.533s0 4.267 0 8.533-4.267 12.8-4.267 17.067l-285.867 285.867c-8.533 8.533-21.333 8.533-29.867 0s-8.533-21.333 0-29.867l251.733-251.733h-930.133c-12.8 0-21.333-8.533-21.333-21.333s8.533-21.333 21.333-21.333z" />
<glyph unicode="&#xe91e;" glyph-name="twitter-Y" d="M314.243 663.817l323.273-431.633h74.046l-323.273 431.633zM511.097 893.178c-245.616 0-444.275-198.66-444.275-444.275s198.66-444.275 444.275-444.275c245.616-1.806 446.081 198.66 446.081 444.275s-200.466 444.275-446.081 444.275zM621.263 197.869l-148.092 196.854-182.406-196.854h-46.956l207.69 223.944-205.884 276.317h158.928l135.45-180.6 167.958 180.6h46.956l-193.242-209.496 218.526-292.571h-158.928z" />
<glyph unicode="&#xe91f;" glyph-name="twitter" d="M511.097 893.178c-245.616 0-444.275-198.66-444.275-444.275s198.66-444.275 444.275-444.275 446.081 198.66 446.081 444.275c0 245.616-200.466 444.275-446.081 444.275zM736.847 537.397c0-5.418 0-9.030 0-14.448 0-148.092-111.972-319.661-319.661-319.661-63.21 0-122.808 18.060-171.57 50.568 9.030-1.806 18.060-1.806 27.090-1.806 52.374 0 101.136 18.060 139.062 48.762-48.762 1.806-90.3 32.508-104.748 77.658 7.224-1.806 14.448-1.806 21.672-1.806 10.836 0 19.866 1.806 28.896 3.612-50.568 10.836-90.3 55.986-90.3 110.166 0 0 0 1.806 0 1.806 14.448-9.030 32.508-12.642 50.568-14.448-30.702 19.866-50.568 54.18-50.568 93.912 0 19.866 5.418 39.732 14.448 55.986 55.986-68.628 137.256-111.972 231.168-117.39-1.806 9.030-3.612 16.254-3.612 25.284 0 61.404 50.568 111.972 111.972 111.972 32.508 0 61.404-14.448 81.27-36.12 25.284 5.418 48.762 14.448 70.434 27.090-9.030-27.090-25.284-48.762-48.762-61.404 23.478 1.806 45.15 9.030 65.016 18.060-12.642-21.672-30.702-41.538-52.374-57.792z" />
<glyph unicode="&#xe920;" glyph-name="facebook" d="M511.097 893.178c-245.616 0-444.275-198.66-444.275-444.275s198.66-444.275 444.275-444.275 446.081 198.66 446.081 444.275c0 245.616-200.466 444.275-446.081 444.275zM630.293 450.709h-77.658c0-122.808 0-274.511 0-274.511h-113.778c0 0 0 149.898 0 274.511h-54.18v97.524h54.18v63.21c0 45.15 21.672 115.584 115.584 115.584h84.882v-93.912c0 0-50.568 0-61.404 0s-23.478-5.418-23.478-27.090v-57.792h86.688l-10.836-97.524z" />
<glyph unicode="&#xe921;" glyph-name="valmynd" d="M64.768 704.128h894.208c11.776 0 21.333 9.557 21.333 21.333s-9.557 21.333-21.333 21.333h-894.208c-11.776 0-21.333-9.557-21.333-21.333s9.557-21.333 21.333-21.333zM958.976 448.085h-894.208c-11.776 0-21.333-9.557-21.333-21.333s9.557-21.333 21.333-21.333h894.208c11.776 0 21.333 9.557 21.333 21.333s-9.557 21.333-21.333 21.333zM958.976 149.333h-894.208c-11.776 0-21.333-9.557-21.333-21.333s9.557-21.333 21.333-21.333h894.208c11.776 0 21.333 9.557 21.333 21.333s-9.557 21.333-21.333 21.333z" />
<glyph unicode="&#xe922;" glyph-name="linkedin" d="M511.097 893.178c-245.616 0-444.275-198.66-444.275-444.275s198.66-444.275 444.275-444.275c245.616-1.806 446.081 198.66 446.081 444.275s-200.466 444.275-446.081 444.275zM760.325 232.183c0-19.866-16.254-36.12-36.12-36.12h-424.409c-19.866 0-36.12 16.254-36.12 36.12v428.021c0 19.866 16.254 36.12 36.12 36.12h422.603c19.866 0 36.12-16.254 36.12-36.12l1.806-428.021zM597.785 508.501c-39.732 0-57.792-21.672-66.822-37.926v0 0c0 0 0 0 0 0v32.508h-74.046c1.806-21.672 0-225.75 0-225.75h74.046v126.42c0 7.224 0 12.642 1.806 18.060 5.418 12.642 18.060 27.090 37.926 27.090 27.090 0 37.926-19.866 37.926-50.568v-121.002h75.852v130.032c0 68.628-37.926 101.136-86.688 101.136zM377.453 611.443c-25.284 0-41.538-16.254-41.538-39.732 0-21.672 16.254-39.732 41.538-39.732v0c25.284 0 41.538 18.060 41.538 39.732 0 23.478-16.254 39.732-41.538 39.732zM339.527 503.083h75.852v-225.75h-75.852v225.75z" />
<glyph unicode="&#xe923;" glyph-name="youtube-Y" d="M451.499 380.275l149.898 77.658-149.898 79.464zM511.097 893.178c-245.616 0-444.275-198.66-444.275-444.275s198.66-444.275 444.275-444.275 446.081 198.66 446.081 444.275c0 245.616-200.466 444.275-446.081 444.275zM791.026 430.843c0-45.15-5.418-90.3-5.418-90.3s-5.418-37.926-21.672-55.986c-21.672-21.672-45.15-21.672-55.986-23.478-77.658-5.418-195.048-5.418-195.048-5.418s-144.48 1.806-189.63 5.418c-12.642 1.806-39.732 1.806-61.404 23.478-16.254 16.254-21.672 55.986-21.672 55.986s-5.418 45.15-5.418 90.3v41.538c0 45.15 5.418 90.3 5.418 90.3s5.418 37.926 21.672 55.986c21.672 21.672 45.15 21.672 55.986 23.478 77.658 5.418 195.048 5.418 195.048 5.418v0c0 0 117.39 0 195.048-5.418 10.836-1.806 34.314-1.806 55.986-23.478 16.254-16.254 21.672-55.986 21.672-55.986v0c0 0 5.418-45.15 5.418-90.3v-41.538z" />
<glyph unicode="&#xe924;" glyph-name="thin-0308_support_help_SDG" d="M512-51.2c-277.333 0-499.2 221.867-499.2 499.2s221.867 499.2 499.2 499.2c277.333 0 499.2-221.867 499.2-499.2s-221.867-499.2-499.2-499.2zM512 904.533c-251.733 0-456.533-204.8-456.533-456.533s204.8-456.533 456.533-456.533 456.533 204.8 456.533 456.533c0 251.733-204.8 456.533-456.533 456.533zM512 204.8c-136.533 0-243.2 110.933-243.2 243.2s106.667 243.2 243.2 243.2c136.533 0 243.2-110.933 243.2-243.2s-106.667-243.2-243.2-243.2zM512 648.533c-110.933 0-200.533-89.6-200.533-200.533s89.6-200.533 200.533-200.533c110.933 0 200.533 89.6 200.533 200.533s-89.6 200.533-200.533 200.533zM529.067 661.333c-4.267-4.267-8.533-4.267-17.067-4.267-12.8 0-21.333 8.533-21.333 21.333v234.667c0 12.8 8.533 21.333 21.333 21.333s21.333-8.533 21.333-21.333v-234.667c0-4.267-4.267-12.8-4.267-17.067zM529.067-34.133c-4.267-4.267-8.533-4.267-17.067-4.267-12.8 0-21.333 8.533-21.333 21.333v230.4c0 12.8 8.533 21.333 21.333 21.333s21.333-8.533 21.333-21.333v-230.4c0-4.267-4.267-12.8-4.267-17.067zM998.4 430.933c-4.267-4.267-8.533-4.267-17.067-4.267h-234.667c-12.8 0-21.333 8.533-21.333 21.333s8.533 21.333 21.333 21.333h234.667c12.8 0 21.333-8.533 21.333-21.333 0-4.267-4.267-12.8-4.267-17.067zM294.4 430.933c-4.267-4.267-8.533-4.267-17.067-4.267h-230.4c-12.8 0-21.333 8.533-21.333 21.333s8.533 21.333 21.333 21.333h234.667c12.8 0 21.333-8.533 21.333-21.333 0-4.267-4.267-12.8-8.533-17.067zM371.2 610.133c0-4.267 0-12.8-4.267-17.067-8.533-8.533-25.6-8.533-34.133 0l-162.133 166.4c-8.533 8.533-8.533 21.333 0 29.867s21.333 8.533 29.867 0l166.4-166.4c4.267-4.267 4.267-8.533 4.267-12.8zM861.867 119.467c0-4.267 0-12.8-4.267-17.067-8.533-8.533-21.333-8.533-29.867 0l-162.133 162.133c-8.533 8.533-8.533 21.333 0 29.867s21.333 8.533 29.867 0l162.133-162.133c4.267-4.267 4.267-8.533 4.267-12.8zM866.133 776.533c0-4.267 0-12.8-4.267-17.067l-166.4-166.4c-8.533-8.533-21.333-8.533-29.867 0s-8.533 21.333 0 29.867l166.4 166.4c8.533 8.533 21.333 8.533 29.867 0 0 0 4.267-4.267 4.267-12.8zM371.2 281.6c0-4.267 0-12.8-4.267-17.067l-166.4-166.4c-8.533-8.533-21.333-8.533-29.867 0s-8.533 21.333 0 29.867l166.4 166.4c8.533 8.533 21.333 8.533 29.867 0 0 0 4.267-4.267 4.267-12.8z" />
<glyph unicode="&#xe925;" glyph-name="thin-0551b_information_about" d="M512 960c-282.325 0-512-229.675-512-512 0-282.368 229.675-512 512-512s512 229.675 512 512c-0.043 282.325-229.717 512-512 512zM512-21.035c-258.603 0-469.035 210.432-469.035 469.077 0 258.603 210.432 469.035 469.035 469.035s469.035-210.432 469.035-469.035c-0.043-258.688-210.432-469.077-469.035-469.077zM451.84 687.232c0 19.115 5.248 33.877 15.701 44.203 10.539 10.325 25.472 15.488 44.885 15.488 18.816 0 33.451-5.163 43.989-15.488 10.411-10.325 15.701-25.045 15.701-44.203 0-18.219-5.248-32.555-15.701-43.051-10.539-10.496-25.173-15.701-43.989-15.701-19.456 0-34.347 5.248-44.885 15.701-10.411 10.496-15.701 24.832-15.701 43.051zM467.456 533.76h88.704v-374.528h-88.704v374.528z" />
<glyph unicode="&#xe926;" glyph-name="thin-0155Xb_delete_remove_exit_close_checkbox" d="M136.917 103.083c-8.32-8.32-8.32-21.845 0-30.165s21.845-8.32 30.165 0l720 720c8.32 8.32 8.32 21.845 0 30.165s-21.845 8.32-30.165 0l-720-720zM856.917 72.917c8.32-8.32 21.845-8.32 30.165 0s8.32 21.845 0 30.165l-720 720c-8.32 8.32-21.845 8.32-30.165 0s-8.32-21.845 0-30.165l720-720z" />
<glyph unicode="&#xe927;" glyph-name="thin-0552b_about_question_faq_help" d="M512 960c-281.6 0-512-230.4-512-512s230.4-512 512-512 512 230.4 512 512-230.4 512-512 512zM512-21.333c-260.267 0-469.333 209.067-469.333 469.333s209.067 469.333 469.333 469.333 469.333-209.067 469.333-469.333-209.067-469.333-469.333-469.333zM465.067 341.333v25.6c0 25.6 4.267 51.2 17.067 68.267s25.6 38.4 51.2 55.467c29.867 25.6 51.2 42.667 59.733 55.467s12.8 29.867 12.8 46.933c0 21.333-8.533 38.4-21.333 46.933s-34.133 17.067-59.733 17.067c-25.6 0-46.933-4.267-68.267-8.533-21.333-8.533-42.667-12.8-64-25.6l-29.867 68.267c51.2 29.867 106.667 42.667 162.133 42.667 51.2 0 89.6-12.8 119.467-34.133s42.667-55.467 42.667-98.133c0-17.067-4.267-34.133-8.533-51.2s-12.8-29.867-25.6-42.667-29.867-29.867-59.733-51.2c-21.333-17.067-38.4-34.133-46.933-46.933s-12.8-29.867-12.8-46.933v-17.067l-68.267-4.267zM448 221.867c0 38.4 17.067 55.467 55.467 55.467 17.067 0 29.867-4.267 42.667-12.8s12.8-25.6 12.8-42.667-4.267-34.133-12.8-42.667-21.333-17.067-42.667-17.067-29.867 4.267-42.667 17.067c-8.533 8.533-12.8 21.333-12.8 42.667z" />
<glyph unicode="&#xe928;" glyph-name="email-Y" d="M511.097 893.178c-245.616 0-444.275-198.66-444.275-444.275s198.66-444.275 444.275-444.275 446.081 198.66 446.081 444.275c0 245.616-200.466 444.275-446.081 444.275zM283.541 636.727h456.917c9.030 0 16.254-1.806 21.672-7.224l-232.974-218.526c-10.836-9.030-23.478-9.030-34.314 0l-232.974 220.332c5.418 5.418 12.642 5.418 21.672 5.418zM242.004 308.035v287.153c0 5.418 1.806 9.030 1.806 14.448l169.764-160.734-164.346-164.346c-5.418 7.224-7.224 14.448-7.224 23.478zM740.459 264.691h-456.917c-5.418 0-9.030 0-12.642 1.806l164.346 162.54 41.538-39.732c19.866-19.866 52.374-19.866 72.24 0l41.538 39.732 162.54-162.54c-3.612 0-9.030-1.806-12.642-1.806zM781.996 308.035c0-9.030-1.806-16.254-7.224-23.478l-164.346 164.346 169.764 160.734c1.806-5.418 1.806-9.030 1.806-14.448v-287.153z" />
<glyph unicode="&#xe929;" glyph-name="thin-1021_masks_theater_play" d="M1002.539 505.728c-14.507 17.067-34.987 25.771-58.027 24.533-162.773-10.88-241.664 18.389-299.179 39.723 0 0-2.773 1.024-2.773 1.024-11.051 4.096-21.931-2.091-26.027-13.099-4.096-11.051 2.901-23.851 13.952-27.947 57.728-21.419 144.896-53.845 316.885-42.325 8.747 0.341 17.067-2.901 22.699-9.557s7.765-15.317 5.76-23.851c-23.296-100.139-95.701-341.931-264.405-423.808-50.432-24.491-108.843-12.459-145.536 29.611-45.781 52.565-75.136 125.013-87.253 215.339-1.579 11.648-12.331 20.309-23.979 18.304-11.691-1.536-19.883-12.288-18.304-23.979 13.269-98.731 46.037-178.688 97.408-237.696 32.427-37.163 77.397-56.875 123.605-56.875 24.405 0 49.195 5.504 72.704 16.896 178.603 86.699 256.725 320.768 287.36 452.565 5.035 21.76-0.384 44.075-14.891 61.141zM621.867 404.523c-4.779 0.981-47.701 9.131-73.685-8.021-9.344-6.187-15.403-14.933-17.493-25.173-2.603-12.757 1.109-27.179 10.709-41.728 11.307-17.109 33.792-37.632 56.491-42.24 4.48-0.896 8.96-1.323 13.397-1.323 11.648 0 23.083 3.072 33.067 9.131 14.336 8.661 23.979 22.229 27.307 38.187 3.072 15.104-0.043 30.635-8.747 43.776-9.216 13.995-24.192 23.979-41.045 27.392zM622.336 331.691c-4.565-2.731-10.24-3.584-15.872-2.475-14.037 2.816-34.048 25.899-34.987 31.488 2.475 2.219 11.179 3.968 22.016 3.968 6.229 0 13.099-0.555 19.883-1.963 5.888-1.152 11.008-4.48 14.037-9.131 1.707-2.603 3.541-6.699 2.517-11.648-1.195-5.632-5.248-8.832-7.595-10.24zM770.688 252.16c3.755-0.768 7.851-1.109 12.117-1.109 13.227 0 28.459 3.584 42.837 10.283 12.928 6.059 35.243 19.456 39.851 41.771 2.091 10.283-0.085 20.693-6.229 30.037-17.152 25.899-59.819 35.2-64.597 36.224-16.299 3.328-32.683 0.555-46.507-7.808-14.336-8.661-23.979-22.229-27.307-38.187-3.072-15.104 0.043-30.635 8.747-43.776 9.259-13.995 24.277-23.979 41.088-27.435zM770.261 325.035c3.243 1.963 7.040 2.944 11.008 2.944 1.621 0 3.243-0.171 4.864-0.512 18.688-3.797 35.499-13.483 37.675-15.531-3.029-7.467-30.336-21.205-44.544-17.963-5.888 1.152-11.008 4.48-14.037 9.131-1.707 2.603-3.541 6.699-2.517 11.648 1.109 5.675 5.205 8.875 7.552 10.283zM556.373 187.563c-14.379-13.696-18.176-34.304-9.771-52.437 8.32-17.963 25.941-28.075 45.824-26.112 39.339 4.139 78.848-3.627 113.579-23.125 6.955-3.925 14.549-5.845 22.016-5.845 10.88 0 21.632 4.053 30.336 11.861 14.891 13.44 19.413 33.92 11.563 52.139-17.195 39.893-52.864 68.821-95.403 77.525-42.581 8.704-86.699-4.096-118.144-34.005zM729.771 123.605c-1.493-1.323-2.389-0.811-2.859-0.555-0.043 0.043-0.043 0.043-0.043 0.043-35.029 19.584-73.813 29.696-113.451 29.696-8.491 0-17.024-0.512-25.643-1.408l2.347-21.205-4.352 26.453c21.376 20.309 51.285 28.971 80.213 23.083 28.843-5.888 53.12-25.515 63.787-56.107zM616.277 852.907c-0.512 23.168-11.605 44.203-30.549 57.6-18.987 13.44-42.539 16.939-64.555 9.771-147.925-48.427-271.701-54.315-427.179-20.395-22.656 4.949-45.653-0.939-63.104-16.128s-26.453-37.12-24.704-60.203c10.795-141.781 54.528-397.355 226.048-515.797 30.037-20.693 64.128-30.976 98.091-30.976 39.424 0 78.635 13.781 110.976 41.131 159.104 134.4 177.963 392.875 174.976 534.997zM413.781 350.507c-45.269-38.229-108.459-41.344-157.312-7.68-162.773 112.469-199.509 375.936-207.701 484.011-0.725 9.472 2.987 18.517 10.155 24.747 5.504 4.779 12.373 7.339 19.499 7.339 2.133 0 4.309-0.213 6.485-0.683 163.499-35.712 293.76-29.483 449.579 21.504 9.088 3.029 18.773 1.536 26.624-4.011 7.808-5.504 12.331-14.165 12.544-23.68 2.219-108.331-8.875-373.973-159.872-501.547zM230.699 584.875c17.067 0.853 32.896 7.808 44.587 19.669 12.16 12.331 18.389 28.416 17.579 45.227s-8.576 32.171-21.845 43.264c-12.8 10.667-29.227 16-46.293 15.232-16.555-0.768-34.645-4.821-48.427-10.837-31.488-13.653-35.328-34.389-34.773-45.525 1.152-23.424 21.931-40.704 34.219-48.896 17.237-11.52 36.565-18.176 52.395-18.176 0.853 0 1.707 0 2.56 0.043zM183.765 652.203c2.859 4.693 22.229 12.459 43.008 13.44 0.469 0 0.896 0.043 1.323 0.043 5.845 0 11.307-1.877 15.531-5.419 4.053-3.328 6.4-7.808 6.613-12.587s-1.664-9.429-5.333-13.184c-4.139-4.181-9.899-6.699-16.256-6.997-15.232-1.365-42.923 18.347-44.885 24.704zM409.941 717.312c-35.883-1.792-63.787-30.848-62.123-64.896 1.621-32.939 30.336-58.624 64.811-58.624 1.109 0 2.219 0.043 3.371 0.085 32.299 1.579 84.096 37.461 82.261 75.349-1.749 35.883-47.232 50.261-88.32 48.085zM413.909 636.501c-13.056-0.171-22.955 7.509-23.467 18.005s9.173 19.584 21.589 20.181c1.621 0.085 3.243 0.128 4.864 0.128 18.987 0 36.181-5.12 38.741-7.424-0.811-8.405-26.24-30.123-41.728-30.891zM387.285 536.192c-38.869-14.549-82.304-16.683-122.453-5.973-19.413 5.12-39.296-2.432-50.603-19.328-11.392-17.152-10.709-38.656 1.749-54.827 26.325-34.091 66.944-53.973 109.739-53.973 2.219 0 4.48 0.043 6.741 0.171 45.227 2.219 86.571 26.453 110.677 64.853 10.837 17.28 9.429 38.741-3.584 54.741-12.928 15.744-33.451 21.376-52.267 14.336zM330.368 444.885c-31.317-1.749-61.44 12.416-80.597 37.248-1.195 1.536-1.195 3.285 0 5.077 1.067 1.579 2.133 1.92 2.987 1.92 0.469 0 0.811-0.085 1.067-0.171 49.323-13.227 100.608-10.709 148.395 7.211 0.683 0.256 2.347 0.896 4.224-1.365 1.365-1.707 1.579-3.413 0.512-5.077-16.683-26.539-45.269-43.307-76.587-44.843z" />
<glyph unicode="&#xe92a;" glyph-name="thin-0978_family_relationship_father_mother_child" d="M1020.16 220.928l-93.099 233.173 18.005 96.469c5.376 164.309-5.888 172.416-21.845 178.688-1.109 0.555-2.347 1.024-3.541 1.408-14.805 4.395-32.64 8.149-42.795-2.859l-42.539-45.995-42.581 45.995c-10.24 11.008-28.117 7.211-42.795 2.859-1.152-0.341-2.347-0.811-3.456-1.365-15.915-6.229-27.221-14.208-21.504-181.973l17.621-93.269-93.099-233.131c-2.603-6.571-1.792-14.037 2.176-19.883 3.968-5.888 10.581-9.387 17.664-9.387h101.419v-230.144c0-11.776 9.557-21.333 21.333-21.333s21.333 9.557 21.333 21.333v251.477c0 11.776-9.557 21.333-21.333 21.333h-91.264l83.712 209.707c1.493 3.755 1.877 7.893 1.109 11.861l-18.389 96.085c-2.987 91.648-0.128 125.909 2.005 138.411l50.432-54.443c8.064-8.704 23.253-8.704 31.317 0l50.432 54.485c2.133-12.373 5.077-46.080 2.347-135.168l-18.731-99.371c-0.768-3.968-0.384-8.107 1.109-11.861l83.669-209.707h-91.264c-11.776 0-21.333-9.557-21.333-21.333v-251.477c0-11.776 9.557-21.333 21.333-21.333s21.333 9.557 21.333 21.333v230.144h101.419c7.083 0 13.696 3.499 17.664 9.387 3.925 5.845 4.736 13.312 2.133 19.883zM191.701 318.507c-11.776 0-21.333-9.557-21.333-21.333v-339.072c0-11.776 9.557-21.333 21.333-21.333s21.333 9.557 21.333 21.333v339.072c0 11.776-9.515 21.333-21.333 21.333zM191.701 765.568c49.707 0 82.688 61.696 82.688 102.528 0 45.568-37.077 82.688-82.688 82.688-45.568 0-82.688-37.077-82.688-82.688 0.043-40.832 33.024-102.528 82.688-102.528zM191.701 908.075c22.059 0 40.021-17.92 40.021-40.021 0-24.747-20.693-59.861-40.021-59.861s-39.979 35.157-39.979 59.904c0 22.059 17.92 39.979 39.979 39.979zM490.88 301.739c43.947 0 72.021 52.395 72.021 88.405 0 39.723-32.299 72.021-72.021 72.021s-72.021-32.299-72.021-72.021c0-36.053 28.075-88.405 72.021-88.405zM490.88 419.499c16.171 0 29.355-13.184 29.355-29.355 0-19.669-16.725-45.739-29.355-45.739s-29.355 26.069-29.355 45.739c0 16.171 13.184 29.355 29.355 29.355zM834.389 756.267c47.829 0 79.531 61.696 79.531 102.528 0 45.568-35.669 82.688-79.531 82.688s-79.616-37.077-79.616-82.688c0-40.789 31.787-102.528 79.616-102.528zM834.389 898.816c20.352 0 36.864-17.92 36.864-40.021 0-26.283-20.651-59.861-36.864-59.861s-36.949 33.579-36.949 59.861c0 22.059 16.555 40.021 36.949 40.021zM321.024 736.128c-2.304 1.963-5.035 3.413-7.979 4.224-4.011 1.152-8.832 1.493-32.085 2.432l-12.075 0.555c-19.029 1.28-37.12-9.387-46.635-27.819-9.6-18.517-51.499-18.56-61.056 0-9.472 18.389-27.136 28.843-46.635 27.861l-12.587-0.597c-22.869-0.939-27.605-1.28-31.616-2.432-2.859-0.811-5.547-2.219-7.893-4.139-9.088-7.552-36.693-30.635-24.661-352.128 0.171-5.888 3.755-13.397 8.192-17.28 6.699-5.803 14.464-6.784 21.803-6.485l23.253-403.371c0.683-11.776 10.496-21.077 22.528-20.096 11.733 0.683 20.736 10.752 20.053 22.485l-24.235 420.651c-0.213 5.888-3.883 13.568-8.32 17.408-6.528 5.632-14.080 6.613-21.291 6.571-7.424 219.051 4.907 280.96 8.875 295.552 4.565 0.213 10.069 0.427 15.061 0.64l13.525 0.64c2.091 0.427 4.779-2.475 6.016-4.779 12.203-23.68 38.443-38.4 68.437-38.4 30.037 0 56.235 14.72 68.437 38.4 1.195 2.304 2.901 4.949 6.016 4.779l13.056-0.64c4.864-0.213 10.283-0.427 14.592-0.555 5.547-18.176 17.024-82.603 9.813-295.637-7.253 0-14.763-0.939-21.291-6.571-4.352-3.755-7.979-11.349-8.32-17.067l-24.277-420.992c-0.683-11.733 8.277-21.845 20.053-22.485 0.427-0.043 0.853-0.043 1.237-0.043 11.221 0 20.608 8.747 21.291 20.139l23.253 403.371c7.467-0.384 15.104 0.683 21.803 6.485 4.437 3.84 7.979 11.392 8.192 17.237 12.075 321.28-15.488 344.448-24.533 352.085zM490.88 268.416c-55.168 0-100.096-55.893-100.096-124.544 0-47.445 31.189-203.819 100.096-203.819 68.864 0 100.053 156.373 100.053 203.819 0.043 68.693-44.885 124.544-100.053 124.544zM490.88-17.28c-19.285 0-57.429 97.963-57.429 161.152 0 44.373 26.283 81.877 57.429 81.877 31.104 0 57.387-37.504 57.387-81.877 0.043-63.189-38.101-161.152-57.387-161.152z" />
<glyph unicode="&#xe92b;" glyph-name="thin-1093_growth_business_success_startup" d="M1002.667 405.333h-256c-11.792 0-21.333-9.542-21.333-21.333v-106.667h-234.667c-11.792 0-21.333-9.542-21.333-21.333v-106.667h-234.667c-11.792 0-21.333-9.542-21.333-21.333v-64h-192c-11.792 0-21.333-9.542-21.333-21.333v-85.333c0-11.792 9.542-21.333 21.333-21.333h981.333c11.792 0 21.333 9.542 21.333 21.333v426.667c0 11.792-9.542 21.333-21.333 21.333zM42.667 21.333h170.667v-42.667h-170.667v42.667zM256 42.667v64h213.333v-128h-213.333v64zM512 128v106.667h213.333v-256h-213.333v149.333zM981.333-21.333h-213.333v384h213.333v-384zM331.688 799.313c3.708-0.5 7.396-0.771 11.062-0.771 17.229 0 33.896 5.583 47.896 16.167 34.959 26.5 41.875 76.521 15.375 111.521-12.833 16.937-31.521 27.875-52.562 30.771s-41.979-2.563-58.938-15.417c-16.958-12.833-27.896-31.5-30.792-52.542-2.896-21.062 2.563-42 15.417-58.937 12.812-16.958 31.479-27.875 52.542-30.792zM320.271 907.583c0 0 0 0 0.021 0 6.646 5.042 14.479 7.479 22.25 7.479 11.167 0 22.229-5.041 29.479-14.604 12.271-16.229 9.083-39.438-7.146-51.75-7.854-5.937-17.521-8.521-27.354-7.125-9.75 1.333-18.417 6.417-24.375 14.292-5.958 7.854-8.5 17.562-7.146 27.334s6.417 18.417 14.271 24.375zM212.396 538.959c-3.25-31.479 17.458-61 48.062-68.646l102.063-26c9.021-2.479 15.458-10.75 15.667-20.042l2.438-118.854c0.25-11.625 9.75-20.875 21.333-20.875 0.146 0 0.292 0 0.437 0 11.771 0.25 21.125 10 20.896 21.75l-2.438 118.896c-0.625 28.021-19.958 52.812-47.396 60.354l-102.563 26.125c-10.229 2.563-17.146 12.417-16.062 22.708l15.125 134c2.521 22.063 20.458 38.979 42.417 40.208 15.542 0.271 30.333-8.521 36.437-22.959 13.667-32.208 32.958-61.208 57.896-86.813l4.229-4.021c4.791-4.542 11.5-6.75 17.896-5.625l125.708 19.021c11.667 1.75 19.667 12.625 17.917 24.271-1.791 11.647-12.666 19.814-24.291 17.897l-115.084-17.396c-18.959 20.333-34.083 43.625-44.979 69.333-13.083 30.792-43.979 50.708-77.896 48.896-43-2.397-77.75-35.188-82.646-78.001l-15.167-134.229zM216.729 422.271l-10.292-100.687-111.938-104.625c-8.604-8.042-9.062-21.542-1.021-30.167 4.187-4.458 9.875-6.75 15.583-6.75 5.229 0 10.458 1.917 14.563 5.75l117.792 110.083c3.771 3.5 6.146 8.292 6.667 13.417l11.104 108.646c1.187 11.708-7.334 22.188-19.063 23.396-11.478 0.812-22.187-7.354-23.395-19.063zM101.25 554.542c1.958-0.562 3.917-0.812 5.854-0.812 9.292 0 17.833 6.125 20.5 15.5l36.479 128.333 48.625 8.146c11.625 1.937 19.459 12.937 17.521 24.562-1.958 11.646-13.042 19.667-24.563 17.521l-61.937-10.375c-8.125-1.354-14.75-7.292-17-15.209l-40.166-141.312c-3.229-11.334 3.354-23.125 14.688-26.354z" />
<glyph unicode="&#xe92c;" glyph-name="by" d="M510.4 960c144 0 265.6-49.6 364.8-148.8s148.8-220.8 148.8-363.2-48-264-145.6-360c-104-102.4-225.6-152-366.4-152s-259.2 49.6-360 150.4c-102.4 100.8-152 220.8-152 361.6s49.6 260.8 150.4 363.2c99.2 99.2 219.2 148.8 360 148.8zM513.6 867.2c-116.8 0-214.4-41.6-296-123.2-83.2-84.8-124.8-184-124.8-297.6s41.6-211.2 124.8-294.4c83.2-83.2 182.4-124.8 296-124.8s212.8 41.6 297.6 124.8c80 76.8 120 176 120 292.8s-41.6 216-123.2 297.6c-81.6 81.6-180.8 123.2-296 123.2zM649.6 574.4v-209.6h-59.2v-248h-158.4v248h-59.2v209.6c0 9.6 3.2 17.6 9.6 24s14.4 9.6 24 9.6h209.6c8 0 16-3.2 22.4-9.6s9.6-14.4 9.6-24zM440 707.2c0 48 24 72 72 72s72-24 72-72-24-72-72-72-72 24-72 72z" />
<glyph unicode="&#xe92d;" glyph-name="cc" d="M510.4 960c144 0 265.6-49.6 366.4-150.4 48-48 84.8-102.4 110.4-164.8s36.8-128 36.8-196.8-12.8-136-36.8-196.8c-24-60.8-60.8-115.2-108.8-161.6-49.6-49.6-107.2-86.4-169.6-113.6-64-25.6-129.6-40-196.8-40s-132.8 12.8-193.6 38.4c-62.4 25.6-116.8 64-166.4 112s-86.4 104-112 166.4-38.4 126.4-38.4 195.2 12.8 132.8 38.4 195.2c25.6 62.4 64 118.4 113.6 168 96 99.2 216 148.8 356.8 148.8zM513.6 867.2c-116.8 0-216-41.6-296-123.2-40-41.6-70.4-86.4-92.8-137.6s-32-104-32-160 11.2-107.2 32-158.4c22.4-51.2 52.8-96 92.8-136s86.4-70.4 136-91.2c51.2-20.8 104-32 158.4-32s108.8 11.2 160 32c51.2 20.8 97.6 52.8 139.2 92.8 80 78.4 120 176 120 292.8s-9.6 110.4-30.4 161.6c-20.8 51.2-51.2 96-91.2 136-81.6 81.6-180.8 123.2-297.6 123.2zM507.2 532.8l-68.8-35.2c-8 16-16 25.6-27.2 32s-20.8 9.6-30.4 9.6c-46.4 0-68.8-30.4-68.8-91.2s6.4-49.6 17.6-65.6c11.2-16 28.8-24 51.2-24s51.2 14.4 62.4 43.2l62.4-32c-12.8-25.6-32-44.8-56-59.2s-49.6-20.8-78.4-20.8c-46.4 0-83.2 14.4-110.4 41.6-28.8 28.8-41.6 67.2-41.6 116.8s14.4 88 43.2 116.8c28.8 28.8 64 43.2 107.2 43.2 64 0 108.8-24 136-73.6zM801.6 532.8l-67.2-35.2c-8 16-16 25.6-27.2 32s-20.8 9.6-30.4 9.6c-46.4 0-68.8-30.4-68.8-91.2s6.4-49.6 17.6-65.6c11.2-16 28.8-24 51.2-24s51.2 14.4 62.4 43.2l64-32c-14.4-25.6-33.6-44.8-56-59.2-24-14.4-49.6-20.8-78.4-20.8-46.4 0-83.2 14.4-110.4 41.6-27.2 28.8-41.6 67.2-41.6 116.8s14.4 88 43.2 116.8c28.8 28.8 64 43.2 107.2 43.2 64 0 108.8-24 136-73.6z" />
<glyph unicode="&#xe92e;" glyph-name="thin-0430_money_payment_dollar_coins_cash_X" d="M493.227 570.88c-14.933-27.307-23.893-57.6-23.893-90.88 0-105.813 86.187-192 192-192s192 86.187 192 192c0 90.027-62.72 165.12-146.347 186.027 14.080 27.733 22.187 59.307 22.187 91.307 0 105.813-86.187 192-192 192s-192-86.187-192-192c0-89.6 62.72-165.547 148.053-186.453zM810.667 480c0-82.347-66.987-149.333-149.333-149.333s-149.333 66.987-149.333 149.333 66.987 149.333 149.333 149.333 149.333-66.987 149.333-149.333zM537.173 906.667c82.347 0 149.333-66.987 149.333-149.333 0-30.293-9.387-60.587-25.6-84.907-55.893 0-105.387-24.32-140.373-62.72-75.093 9.387-132.693 72.107-132.693 147.627 0 82.347 66.987 149.333 149.333 149.333zM986.453 206.080c-21.333 15.36-48.64 17.067-74.24 5.12l-166.4-75.947c-8.533 9.813-20.48 18.347-36.267 23.040l-235.947 69.12c-39.253 11.52-147.627 17.92-258.56 2.987v25.173c0 11.947-9.387 21.333-21.333 21.333h-170.667c-11.947 0-21.333-9.387-21.333-21.333v-298.667c0-11.947 9.387-21.333 21.333-21.333h170.667c11.947 0 21.333 9.387 21.333 21.333v45.227h0.853c28.587 8.107 71.253 19.627 92.16 10.24 113.493-50.773 222.293-67.413 302.933-67.413 53.333 0 93.867 7.253 114.773 17.067l249.6 113.92c25.173 11.52 40.96 32.853 43.093 58.88 2.56 27.307-9.813 55.040-32 70.827zM172.373-21.333h-128v256h128v-256zM957.867 115.2l-249.6-113.92c-34.133-15.787-194.987-33.28-382.72 50.773-31.573 14.080-74.24 4.693-110.507-5.12v140.8c109.227 15.36 215.467 8.107 246.613-0.853l235.947-69.12c10.667-2.987 16.64-8.96 19.627-16.213 0-0.853 0-1.28 0.427-2.133 0 0 0-0.427 0.427-0.853 2.133-6.827 2.133-14.080 0-20.48-2.56-8.107-7.253-15.36-13.653-19.2-6.827-4.267-15.36-5.12-25.173-2.56l-247.893 72.96c-11.52 3.413-23.040-2.987-26.453-14.507s2.987-23.040 14.507-26.453l247.893-72.96c7.68-2.133 15.36-3.413 22.613-3.413 13.227 0 26.027 3.413 37.12 10.667 15.36 9.813 26.453 25.173 32 43.52 2.987 9.813 3.84 20.053 2.56 30.293l167.68 76.373c12.373 5.547 23.040 5.12 32-1.28 9.813-6.827 15.36-20.053 14.507-32-0.853-10.667-7.253-18.773-18.347-23.893z" />
<glyph unicode="&#xe930;" glyph-name="instagram" d="M586.949 418.201c0-43.887-35.577-79.464-79.464-79.464s-79.464 35.577-79.464 79.464c0 43.887 35.577 79.464 79.464 79.464s79.464-35.577 79.464-79.464zM606.815 613.249h-198.66c-28.896 0-54.18-9.030-70.434-25.284s-25.284-41.538-25.284-70.434v-198.66c0-28.896 9.030-54.18 27.090-72.24 18.060-16.254 41.538-25.284 70.434-25.284h196.854c28.896 0 54.18 9.030 70.434 25.284 18.060 16.254 27.090 41.538 27.090 70.434v198.66c0 28.896-9.030 52.374-25.284 70.434-18.060 18.060-41.538 27.090-72.24 27.090zM507.485 295.393c-68.628 0-122.808 55.986-122.808 122.808 0 68.628 55.986 122.808 122.808 122.808s124.614-54.18 124.614-122.808c0-68.628-55.986-122.808-124.614-122.808zM635.711 517.531c-16.254 0-28.896 12.642-28.896 28.896s12.642 28.896 28.896 28.896 28.896-12.642 28.896-28.896-12.642-28.896-28.896-28.896zM511.097 866.088c-245.616 0-444.275-198.66-444.275-444.275s198.66-444.275 444.275-444.275c245.616 0 444.275 198.66 444.275 444.275 1.806 245.616-198.66 444.275-444.275 444.275zM747.683 317.065c0-41.538-14.448-77.658-39.732-102.942s-61.404-37.926-101.136-37.926h-196.854c-39.732 0-75.852 12.642-101.136 37.926-27.090 25.284-39.732 61.404-39.732 102.942v198.66c0 83.076 55.986 140.868 140.868 140.868h198.66c41.538 0 75.852-14.448 101.136-39.732s37.926-59.598 37.926-101.136v-198.66z" />
<glyph unicode="&#xe931;" glyph-name="rss" d="M512.009 866.889c-245.646 0-444.782-199.136-444.782-444.782 0-245.682 199.118-444.782 444.782-444.782 245.682 0 444.782 199.1 444.782 444.782 0 245.646-199.118 444.782-444.782 444.782zM374.068 221.437c-32.295 0-58.467 26.208-58.467 58.485 0 32.313 26.172 58.485 58.467 58.485 32.277 0 58.485-26.172 58.485-58.485 0-32.259-26.208-58.485-58.485-58.485zM520.787 221.058c0 55.216-21.35 107.073-60.147 145.979-38.707 38.906-90.166 60.364-145.003 60.364v84.423c159.67 0 289.537-130.463 289.537-290.765h-84.387zM669.909 220.985c0 196.282-158.857 356.024-354.127 356.024v84.459c241.799 0 438.55-197.637 438.55-440.483h-84.423z" />
</font>
</defs>
</svg>
